<svg xmlns="http://www.w3.org/2000/svg" xmlns:xlink="http://www.w3.org/1999/xlink" width="330" height="21.71"><rect width="330" height="21.71" rx="0" ry="0" class="a"/><svg height="21.71" viewBox="0 0 33 2.171" width="330" xmlns="http://www.w3.org/2000/svg" xmlns:xlink="http://www.w3.org/1999/xlink"><style>@keyframes l{0%{transform:translateX(0)}.37%{transform:translateX(-33px)}1.52%{transform:translateX(-66px)}1.6%{transform:translateX(-99px)}2.58%{transform:translateX(-132px)}3.73%{transform:translateX(-165px)}4.89%{transform:translateX(-198px)}6.04%{transform:translateX(-231px)}7.2%{transform:translateX(-264px)}8.35%{transform:translateX(-297px)}8.48%{transform:translateX(-363px)}8.49%{transform:translateX(-396px)}9.64%{transform:translateX(-429px)}9.65%{transform:translateX(-462px)}10.8%{transform:translateX(-495px)}11.95%{transform:translateX(-528px)}11.96%{transform:translateX(-561px)}13.11%{transform:translateX(-594px)}14.26%{transform:translateX(-627px)}15.41%{transform:translateX(-660px)}16.56%{transform:translateX(-693px)}17.54%{transform:translateX(-726px)}18.36%{transform:translateX(-792px)}18.37%{transform:translateX(-858px)}18.39%{transform:translateX(-891px)}19.54%{transform:translateX(-924px)}19.7%{transform:translateX(-957px)}20.85%{transform:translateX(-1023px)}20.87%{transform:translateX(-1056px)}21.28%{transform:translateX(-1089px)}21.62%{transform:translateX(-1122px)}21.64%{transform:translateX(-1155px)}22.79%{transform:translateX(-1188px)}23.01%{transform:translateX(-1221px)}23.02%{transform:translateX(-1254px)}24.17%{transform:translateX(-1287px)}24.18%{transform:translateX(-1320px)}25.34%{transform:translateX(-1353px)}26.02%{transform:translateX(-1386px)}27.18%{transform:translateX(-1452px)}28.34%{transform:translateX(-1485px)}29.49%{transform:translateX(-1518px)}30.64%{transform:translateX(-1551px)}31.24%{transform:translateX(-1584px)}32.39%{transform:translateX(-1617px)}33.54%{transform:translateX(-1650px)}34.71%{transform:translateX(-1683px)}35.86%{transform:translateX(-1716px)}37.03%{transform:translateX(-1749px)}38.18%{transform:translateX(-1782px)}39.36%{transform:translateX(-1815px)}40.51%{transform:translateX(-1881px)}41.69%{transform:translateX(-1914px)}42.84%{transform:translateX(-1947px)}44.01%{transform:translateX(-1980px)}45.16%{transform:translateX(-2046px)}46.33%{transform:translateX(-2079px)}47.48%{transform:translateX(-2112px)}47.49%{transform:translateX(-2145px)}48.66%{transform:translateX(-2178px)}49.81%{transform:translateX(-2211px)}50.98%{transform:translateX(-2244px)}52.13%{transform:translateX(-2277px)}52.14%{transform:translateX(-2310px)}54.44%{transform:translateX(-2343px)}55.59%{transform:translateX(-2376px)}57.89%{transform:translateX(-2409px)}59.04%{transform:translateX(-2442px)}60.93%{transform:translateX(-2475px)}60.94%{transform:translateX(-2508px)}61.58%{transform:translateX(-2541px)}61.6%{transform:translateX(-2607px)}62.76%{transform:translateX(-2640px)}62.77%{transform:translateX(-2673px)}62.88%{transform:translateX(-2706px)}62.89%{transform:translateX(-2739px)}64.04%{transform:translateX(-2772px)}64.05%{transform:translateX(-2838px)}64.07%{transform:translateX(-2871px)}64.08%{transform:translateX(-2904px)}65.23%{transform:translateX(-2970px)}66.41%{transform:translateX(-3003px)}67.56%{transform:translateX(-3036px)}71.01%{transform:translateX(-3069px)}72.16%{transform:translateX(-3102px)}74.48%{transform:translateX(-3135px)}75.63%{transform:translateX(-3168px)}76.8%{transform:translateX(-3201px)}77.95%{transform:translateX(-3234px)}79.12%{transform:translateX(-3267px)}80.27%{transform:translateX(-3300px)}81.43%{transform:translateX(-3333px)}82.58%{transform:translateX(-3366px)}82.59%{transform:translateX(-3399px)}83.76%{transform:translateX(-3432px)}84.91%{transform:translateX(-3465px)}86.8%{transform:translateX(-3498px)}86.81%{transform:translateX(-3531px)}87.97%{transform:translateX(-3597px)}89.13%{transform:translateX(-3630px)}90.28%{transform:translateX(-3663px)}90.32%{transform:translateX(-3696px)}91.36%{transform:translateX(-3729px)}92.51%{transform:translateX(-3762px)}93.68%{transform:translateX(-3795px)}94.84%{transform:translateX(-3828px)}94.88%{transform:translateX(-3861px)}96.03%{transform:translateX(-3894px)}97.18%{transform:translateX(-3927px)}97.2%{transform:translateX(-3960px)}97.72%{transform:translateX(-3993px)}97.78%{transform:translateX(-4026px)}98.39%{transform:translateX(-4059px)}98.64%{transform:translateX(-4092px)}98.75%{transform:translateX(-4125px)}99.43%{transform:translateX(-4158px)}99.48%{transform:translateX(-4191px)}to{transform:translateX(-4224px)}}.a{fill:#fff}.c{fill:#828282}.c,.d,.e{white-space:pre}.d{fill:#828282;text-decoration:underline}.e{fill:#cbcccd}.f{fill:#bcbcbc}.f,.g,.h{white-space:pre}.g{fill:#d7afd7;text-decoration:underline}.h{fill:#000;font-weight:700}.i{fill:#0000d7}.i,.r,.t,.u{white-space:pre}.r{fill:#5fafff;font-weight:700}.t,.u{fill:#afafd7}.u{fill:#ffaf87;font-weight:700}</style><g font-family="Monaco,Consolas,Menlo,'Bitstream Vera Sans Mono','Powerline Symbols',monospace" font-size="1.67"><defs><symbol id="1"><text y="1.67" class="c">ethanleba@ethans-mbp</text><text x="21.042" y="1.67" class="c">assets</text><text x="28.056" y="1.67" class="c">%</text></symbol><symbol id="2"><text y="1.67" class="c">cs</text><text x="3.006" y="1.67" class="c">-nw</text><text x="7.014" y="1.67" class="d">em</text><text x="9.018" y="1.67" class="c">Documents/emacs-pkg-deve</text></symbol><symbol id="3"><text y="1.67" class="e">Doom</text><text x="5.01" y="1.67" class="e">loaded</text><text x="12.024" y="1.67" class="e">245</text><text x="16.032" y="1.67" class="e">packages</text><text x="25.05" y="1.67" class="e">across</text><text x="32.064" y="1.67" class="e">4</text></symbol><symbol id="4"><text y="1.67" class="e">1</text><text x="2.004" y="1.67" class="e">modules</text><text x="10.02" y="1.67" class="e">in</text><text x="13.026" y="1.67" class="e">7.039s</text></symbol><symbol id="5"><text y="1.67" class="f">[2021-08-04</text><text x="12.024" y="1.67" class="f">11:57:27]</text><text x="22.044" y="1.67" class="f">[info]</text><text x="29.058" y="1.67" class="f">[WSP</text></symbol><symbol id="6"><text y="1.67" class="f">annel</text></symbol><symbol id="7"><text y="1.67" class="f">roup</text><text x="32.064" y="1.67" class="f">I</text></symbol><symbol id="8"><text y="1.67" class="f">m</text></symbol><symbol id="9"><text x="8.016" y="1.67" class="g">evil-insert-state-cursor</text></symbol><symbol id="10"><text x="8.016" y="1.67" class="g">evil-normal-state-c</text><text x="28.056" y="1.67" class="g">rsor</text></symbol><symbol id="11"><text y="1.67" class="f">Undo-Fu-Session</text><text x="16.032" y="1.67" class="f">can</text><text x="20.04" y="1.67" class="f">not</text><text x="24.048" y="1.67" class="f">recover</text><text x="32.064" y="1.67" class="f">u</text></symbol><symbol id="12"><text y="1.67" class="h">(</text><text x="1.002" y="1.67" class="c">(foo)</text><text x="7.014" y="1.67" class="c">(bar</text><text x="12.024" y="1.67" class="c">((baz)</text><text x="19.038" y="1.67" class="c">(box)))</text><text x="27.054" y="1.67" class="c">(you)</text><text x="32.064" y="1.67" class="h">)</text></symbol><symbol id="13"><text y="1.67" class="c">(</text><text x="1.002" y="1.67" class="h">(</text><text x="2.004" y="1.67" class="c">foo</text><text x="5.01" y="1.67" class="h">)</text><text x="7.014" y="1.67" class="c">(bar</text><text x="12.024" y="1.67" class="c">((baz)</text><text x="19.038" y="1.67" class="c">(box)))</text><text x="27.054" y="1.67" class="c">(you))</text></symbol><symbol id="14"><text y="1.67" class="c">((foo)</text><text x="7.014" y="1.67" class="h">(</text><text x="8.016" y="1.67" class="c">bar</text><text x="12.024" y="1.67" class="c">((baz)</text><text x="19.038" y="1.67" class="c">(box))</text><text x="25.05" y="1.67" class="h">)</text><text x="27.054" y="1.67" class="c">(you))</text></symbol><symbol id="15"><text y="1.67" class="c">((foo)</text><text x="7.014" y="1.67" class="c">(bar</text><text x="12.024" y="1.67" class="h">(</text><text x="13.026" y="1.67" class="c">(baz)</text><text x="19.038" y="1.67" class="c">(box)</text><text x="24.048" y="1.67" class="h">)</text><text x="25.05" y="1.67" class="c">)</text><text x="27.054" y="1.67" class="c">(you))</text></symbol><symbol id="16"><text y="1.67" class="c">((foo)</text><text x="7.014" y="1.67" class="c">(bar</text><text x="12.024" y="1.67" class="c">(</text><text x="13.026" y="1.67" class="h">(</text><text x="14.028" y="1.67" class="c">baz</text><text x="17.034" y="1.67" class="h">)</text><text x="19.038" y="1.67" class="c">(box)))</text><text x="27.054" y="1.67" class="c">(you))</text></symbol><symbol id="17"><text y="1.67" class="c">((foo)</text><text x="7.014" y="1.67" class="c">(bar</text><text x="12.024" y="1.67" class="c">((baz)</text><text x="19.038" y="1.67" class="h">(</text><text x="20.04" y="1.67" class="c">box</text><text x="23.046" y="1.67" class="h">)</text><text x="24.048" y="1.67" class="c">))</text><text x="27.054" y="1.67" class="c">(you))</text></symbol><symbol id="18"><text y="1.67" class="c">((foo)</text><text x="7.014" y="1.67" class="c">(bar</text><text x="12.024" y="1.67" class="c">((baz)</text><text x="19.038" y="1.67" class="c">(box)))</text><text x="27.054" y="1.67" class="h">(</text><text x="28.056" y="1.67" class="c">you</text><text x="31.062" y="1.67" class="h">)</text><text x="32.064" y="1.67" class="c">)</text></symbol><symbol id="19"><text y="1.67" class="c">SPC</text></symbol><symbol id="20"><text y="1.67" class="c">SPC-</text></symbol><symbol id="21"><text y="1.67" class="c">C-u-</text></symbol><symbol id="22"><text y="1.67" class="c">((foo)</text><text x="7.014" y="1.67" class="c">(bar</text><text x="12.024" y="1.67" class="c">((baz)</text><text x="19.038" y="1.67" class="c">(box)))</text><text x="27.054" y="1.67" class="h">(</text><text x="28.056" y="1.67" class="c">you</text><text x="31.062" y="1.67" class="h">)</text></symbol><symbol id="23"><text y="1.67" class="c">((foo)</text><text x="7.014" y="1.67" class="c">(bar</text><text x="12.024" y="1.67" class="c">((baz)</text><text x="19.038" y="1.67" class="h">(</text><text x="20.04" y="1.67" class="c">box</text><text x="23.046" y="1.67" class="h">)</text><text x="24.048" y="1.67" class="c">))</text><text x="27.054" y="1.67" class="c">(you)</text></symbol><symbol id="24"><text y="1.67" class="c">((foo)</text><text x="7.014" y="1.67" class="c">(bar</text><text x="12.024" y="1.67" class="c">(</text><text x="13.026" y="1.67" class="h">(</text><text x="14.028" y="1.67" class="c">baz</text><text x="17.034" y="1.67" class="h">)</text><text x="19.038" y="1.67" class="c">(box)))</text><text x="27.054" y="1.67" class="c">(you)</text></symbol><symbol id="25"><text y="1.67" class="c">((foo)</text><text x="7.014" y="1.67" class="c">(bar</text><text x="12.024" y="1.67" class="h">(</text><text x="13.026" y="1.67" class="c">(baz)</text><text x="19.038" y="1.67" class="c">(box)</text><text x="24.048" y="1.67" class="h">)</text><text x="25.05" y="1.67" class="c">)</text><text x="27.054" y="1.67" class="c">(you)</text></symbol><symbol id="26"><text y="1.67" class="c">((foo)</text><text x="7.014" y="1.67" class="h">(</text><text x="8.016" y="1.67" class="c">bar</text><text x="12.024" y="1.67" class="c">((baz)</text><text x="19.038" y="1.67" class="c">(box))</text><text x="25.05" y="1.67" class="h">)</text><text x="27.054" y="1.67" class="c">(you)</text></symbol><symbol id="27"><text y="1.67" class="c">(</text><text x="1.002" y="1.67" class="h">(</text><text x="2.004" y="1.67" class="c">foo</text><text x="5.01" y="1.67" class="h">)</text><text x="7.014" y="1.67" class="c">(bar</text><text x="12.024" y="1.67" class="c">((baz)</text><text x="19.038" y="1.67" class="c">(box)))</text><text x="27.054" y="1.67" class="c">(you)</text></symbol><symbol id="28"><text y="1.67" class="c">Wrote</text><text x="6.012" y="1.67" class="c">/Users/ethanleba/.emacs.d/.</text></symbol><symbol id="29"><text x="1.002" y="1.67" class="i">n)</text></symbol><symbol id="30"><text x="1.002" y="1.67" class="i">n)</text><text x="31.062" y="1.67" class="c">[N</text></symbol><symbol id="31"><text y="1.67" class="c">o</text><text x="2.004" y="1.67" class="c">further</text><text x="10.02" y="1.67" class="c">undo</text><text x="15.03" y="1.67" class="c">information]</text></symbol><symbol id="32"><text y="1.67" class="c">ore</text><text x="4.008" y="1.67" class="c">demons</text><text x="11.022" y="1.67" class="c">to</text><text x="14.028" y="1.67" class="c">toast!</text><text x="22.044" y="1.67" class="c">Quit?</text><text x="28.056" y="1.67" class="c">(y</text><text x="31.062" y="1.67" class="c">or</text></symbol><symbol id="33"><text y="1.67" class="c">&quot;.local/cache/recentf&quot;</text><text x="23.046" y="1.67" class="c">212L,</text><text x="29.058" y="1.67" class="c">1449</text></symbol><symbol id="a"><path fill="transparent" d="M0 0h33v2H0z"/></symbol><symbol id="b"><path fill="#929292" d="M0 0h1.102v2.171H0z"/></symbol></defs><path class="a" d="M0 0h33v2.171H0z"/><g style="animation-duration:34.78492399999997s;animation-iteration-count:infinite;animation-name:l;animation-timing-function:steps(1,end)"><svg width="4257"><svg><use xlink:href="#a"/><use xlink:href="#b" x="-.004"/></svg><svg x="33"><use xlink:href="#a"/><use xlink:href="#b" x="-.004" y="2.146"/><text y="1.67" class="c">6:39</text><text x="5.01" y="1.67" class="c">EDT</text><text x="9.018" y="1.67" class="c">2021</text></svg><svg x="66"><use xlink:href="#a"/><use xlink:href="#b" x="-.004" y="2.146"/></svg><svg x="99"><use xlink:href="#a"/><use xlink:href="#b" x="-.004" y="2.146"/></svg><svg x="132"><use xlink:href="#a"/><use xlink:href="#b" x="29.996" y="2.146"/><use xlink:href="#1" y="2.171"/></svg><svg x="165"><use xlink:href="#a"/><use xlink:href="#b" x="29.996"/><use xlink:href="#1"/><text y="3.841" class="c">bck-i-search:</text><text x="14.028" y="3.841" class="c">_</text></svg><svg x="198"><use xlink:href="#a"/><use xlink:href="#b" x="31.996"/><text y="1.67" class="c">cs</text><text x="3.006" y="1.67" class="c">-nw</text><text x="7.014" y="1.67" class="c">~/Documents/emacs-pkg-dev/</text><text y="3.841" class="c">e_reencast.</text><text x="11.022" y="3.841" class="d">e</text><text x="12.024" y="3.841" class="c">l</text></svg><svg x="231"><use xlink:href="#a"/><use xlink:href="#b" x="31.996"/><use xlink:href="#2"/><text y="3.841" class="c">m_reencast.</text><text x="11.022" y="3.841" class="d">e</text><text x="12.024" y="3.841" class="c">l</text></svg><svg x="264"><use xlink:href="#a"/><use xlink:href="#b" x="-.004" y="2.146"/><use xlink:href="#2"/></svg><svg x="297"><use xlink:href="#a"/><use xlink:href="#b" x="-.004" y="2.146"/></svg><svg x="330"><use xlink:href="#a"/><use xlink:href="#b" x="-.004" y="2.146"/><use xlink:href="#2"/></svg><svg x="363"><use xlink:href="#a"/><use xlink:href="#b" x="-.004" y="2.146"/></svg><svg x="396"><use xlink:href="#a"/><use xlink:href="#b" x="-.004"/></svg><svg x="429"><use xlink:href="#a"/><use xlink:href="#b" x="-.004"/></svg><svg x="462"><use xlink:href="#a"/><use xlink:href="#b" x="-.004" y="2.146"/><text y="1.67" class="c">evil/evil-commands.el’</text><text x="23.046" y="1.67" class="c">newer</text><text x="29.058" y="1.67" class="c">than</text><text x="1.002" y="3.841" class="c">byte-compiled</text><text x="15.03" y="3.841" class="c">file;</text><text x="21.042" y="3.841" class="c">using</text></svg><svg x="495"><use xlink:href="#a"/><use xlink:href="#b" x="-.004" y="2.146"/><text y="1.67" class="c">’</text><text x="2.004" y="1.67" class="c">newer</text><text x="8.016" y="1.67" class="c">than</text><text x="13.026" y="1.67" class="c">byte-compiled</text><text x="27.054" y="1.67" class="c">file;</text><text y="3.841" class="c">using</text><text x="6.012" y="3.841" class="c">older</text><text x="12.024" y="3.841" class="c">file</text></svg><svg x="528"><use xlink:href="#a"/><use xlink:href="#b" x="-.004" y="2.146"/><text y="1.67" class="c">Loading</text><text x="8.016" y="1.67" class="c">/Users/ethanleba/.doom.d/</text><text y="3.841" class="c">yabai-windmove.el</text><text x="18.036" y="3.841" class="c">(source)...</text></svg><svg x="561"><use xlink:href="#a"/><use xlink:href="#b" x="-.004" y="2.146"/><text y="1.67" class="c">yabai-windmove.el</text><text x="18.036" y="1.67" class="c">(source)...</text><text x="32.064" y="1.67" class="c">d</text><text y="3.841" class="c">one</text></svg><svg x="594"><use xlink:href="#a"/><use xlink:href="#b" x="-.004" y="2.146"/><text x="1.002" y="1.67" class="c">v0.10.0</text><text x="9.018" y="1.67" class="c">was</text><text x="13.026" y="1.67" class="c">already</text><text x="21.042" y="1.67" class="c">installed;</text><text x="32.064" y="1.67" class="c">s</text><text y="3.841" class="c">kipped</text></svg><svg x="627"><use xlink:href="#a"/><use xlink:href="#b" x="-.004" y="2.146"/><text y="1.67" class="e">Iedit</text><text x="6.012" y="1.67" class="e">default</text><text x="14.028" y="1.67" class="e">key</text><text x="18.036" y="1.67" class="e">binding</text><text x="26.052" y="1.67" class="e">is</text><text x="29.058" y="1.67" class="e">C-;</text></svg><svg x="660"><use xlink:href="#a"/><use xlink:href="#b" x="-.004"/><use xlink:href="#3"/><use xlink:href="#4" y="2.171"/></svg><svg x="693"><use xlink:href="#a"/><use xlink:href="#b" x="-.004"/><use xlink:href="#3"/><use xlink:href="#4" y="2.171"/></svg><svg x="726"><use xlink:href="#a"/><use xlink:href="#b" x="-.004"/><use xlink:href="#3"/><use xlink:href="#4" y="2.171"/></svg><svg x="759"><use xlink:href="#a"/></svg><svg x="792"><use xlink:href="#a"/><text x="8.016" y="1.67" style="white-space:pre" fill="#d7afd7">evil-insert-state-cursor</text><text y="3.841" style="white-space:pre" fill="#5fafff">&apos;</text><text x="1.002" y="3.841" style="white-space:pre" fill="#87af5f">(</text><text x="2.004" y="3.841" class="f">bar</text></svg><svg x="825"><use xlink:href="#a"/>0<text y="3.841" class="f"></text>0<text x="1.002" y="3.841" style="white-space:pre" fill="#87af5f" font-weight="700">&lt;N&gt;</text></svg><svg x="858"><use xlink:href="#a"/><use xlink:href="#b" x="31.996"/>0<text y="1.67" class="f">LF</text>0<text x="22.044" y="1.67" class="r">Elisp</text>0<text x="29.058" y="1.67" class="f"></text>0<text x="30.06" y="1.67" style="white-space:pre" fill="#818383" font-weight="700">*</text>0<text x="31.062" y="1.67" class="f"></text></svg><svg x="891"><use xlink:href="#a"/><use xlink:href="#b" x="31.996"/><use xlink:href="#5"/><text y="3.841" class="f">R]</text><text x="3.006" y="3.841" class="f">Slack</text><text x="9.018" y="3.841" class="f">Websocket</text><text x="19.038" y="3.841" class="f">Is</text><text x="22.044" y="3.841" class="f">Ready!</text></svg><svg x="924"><use xlink:href="#a"/><use xlink:href="#b" x="31.996"/><text y="1.67" class="f">Failed</text><text x="7.014" y="1.67" class="f">to</text><text x="10.02" y="1.67" class="f">request</text><text x="18.036" y="1.67" class="f">slack-usergroup</text><text y="3.841" class="f">-list-request:</text><text x="15.03" y="3.841" class="f">user_is_restricted</text></svg><svg x="957"><use xlink:href="#a"/><use xlink:href="#b" x="31.996"/><use xlink:href="#5"/><text y="3.841" class="f">R]</text><text x="3.006" y="3.841" class="f">Slack</text><text x="9.018" y="3.841" class="f">Command</text><text x="17.034" y="3.841" class="f">List</text><text x="22.044" y="3.841" class="f">Updated</text></svg><svg x="990"><use xlink:href="#a"/><use xlink:href="#b" x="31.996"/><text y="1.67" class="f">R]</text><text x="3.006" y="1.67" class="f">Slack</text><text x="9.018" y="1.67" class="f">Command</text><text x="17.034" y="1.67" class="f">List</text><text x="22.044" y="1.67" class="f">Updated</text><text x="32.064" y="1.67" class="f">h</text><use xlink:href="#6" y="2.171"/></svg><svg x="1023"><use xlink:href="#a"/><use xlink:href="#b" x="31.996"/><text y="1.67" class="f">annel</text><text x="32.064" y="1.67" class="f">G</text><text y="3.841" class="f">roup</text></svg><svg x="1056"><use xlink:href="#a"/><use xlink:href="#b" x="31.996"/><use xlink:href="#7"/><use xlink:href="#8" y="2.171"/></svg><svg x="1089"><use xlink:href="#a"/><use xlink:href="#b" x="31.996"/><text y="1.67" class="f">m</text><text x="30.06" y="1.67" class="f">NDS</text><text y="3.841" class="f">2_lab]</text><text x="7.014" y="3.841" class="f">Slack</text><text x="13.026" y="3.841" class="f">Websocket</text><text x="23.046" y="3.841" class="f">Is</text><text x="26.052" y="3.841" class="f">Ready!</text></svg><svg x="1122"><use xlink:href="#a"/><use xlink:href="#9"/><use xlink:href="#10" y="2.171"/></svg><svg x="1155"><use xlink:href="#a"/><use xlink:href="#b" x="31.996"/><use xlink:href="#9"/><use xlink:href="#10" y="2.171"/></svg><svg x="1188"><use xlink:href="#a"/><use xlink:href="#b" x="31.996"/><text x="8.016" y="1.67" class="g">evil-normal</text><text x="19.038" y="1.67" class="f">8]</text><text x="22.044" y="1.67" class="f">[info]</text><text x="29.058" y="1.67" class="f">[NDS</text><text y="3.841" class="f">2_lab]</text><text x="7.014" y="3.841" class="f">Slack</text><text x="13.026" y="3.841" class="f">Command</text><text x="21.042" y="3.841" class="f">List</text><text x="26.052" y="3.841" class="f">Updated</text></svg><svg x="1221"><use xlink:href="#a"/>0<text y="1.67" class="t">You should have a section marked</text>0<text y="3.841" class="t">&quot;;;; Commentary:&quot;</text></svg><svg x="1254"><use xlink:href="#a"/><use xlink:href="#b" x="31.996"/>0<text y="1.67" class="t">&quot;;;; Commentary:&quot;</text>0<text x="31.062" y="1.67" class="f">LF</text>0<text y="3.841" class="f"></text>0<text x="2.004" y="3.841" class="r">Elisp</text>0<text x="9.018" y="3.841" class="f"></text>0<text x="10.02" y="3.841" class="u">!</text>0<text x="11.022" y="3.841" class="f"></text>0<text x="12.024" y="3.841" class="u">7</text>0<text x="13.026" y="3.841" class="f"></text></svg><svg x="1287"><use xlink:href="#a"/><use xlink:href="#b" x="31.996"/>0<text y="1.67" class="f"></text>0<text x="2.004" y="1.67" class="r">Elisp</text>0<text x="9.018" y="1.67" class="f"></text>0<text x="10.02" y="1.67" class="u">!</text>0<text x="11.022" y="1.67" class="f"></text>0<text x="12.024" y="1.67" class="u">7</text>0<text x="13.026" y="1.67" class="f"></text><text x="32.064" y="1.67" class="f">h</text><use xlink:href="#6" y="2.171"/></svg><svg x="1320"><use xlink:href="#a"/><use xlink:href="#b" x="31.996"/><use xlink:href="#7"/><use xlink:href="#8" y="2.171"/></svg><svg x="1353"><use xlink:href="#a"/><use xlink:href="#b" x="31.996"/><use xlink:href="#7"/></svg><svg x="1386"><use xlink:href="#a"/><use xlink:href="#b" x="31.996"/><use xlink:href="#7"/><text y="3.841" class="f">SPC-</text></svg><svg x="1419"><use xlink:href="#a"/><use xlink:href="#b" x="31.996"/><use xlink:href="#7"/><text y="3.841" class="f">SPC</text><text x="4.008" y="3.841" class="f">m</text></svg><svg x="1452"><use xlink:href="#a"/><use xlink:href="#b" x="31.996"/><use xlink:href="#7"/><text y="3.841" class="f">SPC</text><text x="4.008" y="3.841" class="f">m-</text></svg><svg x="1485"><use xlink:href="#a"/><use xlink:href="#b" x="31.996"/><use xlink:href="#7"/><text y="3.841" class="f">SPC</text><text x="4.008" y="3.841" class="f">m</text><text x="6.012" y="3.841" class="f">e-</text></svg><svg x="1518"><use xlink:href="#a"/><use xlink:href="#b" x="31.996"/><use xlink:href="#7"/><text y="3.841" class="f">SPC</text><text x="4.008" y="3.841" class="f">m</text><text x="6.012" y="3.841" class="f">e</text><text x="8.016" y="3.841" class="f">b</text></svg><svg x="1551"><use xlink:href="#a"/><use xlink:href="#b" x="31.996"/><use xlink:href="#11"/><text y="3.841" class="f">ndo</text><text x="4.008" y="3.841" class="f">data:</text><text x="10.02" y="3.841" class="f">(invalid-read-syntax</text><text x="31.062" y="3.841" class="f">#)</text></svg><svg x="1584"><use xlink:href="#a"/><use xlink:href="#b" x="31.996"/><use xlink:href="#11"/></svg><svg x="1617"><use xlink:href="#a"/><use xlink:href="#b" x="-.004"/></svg><svg x="1650"><use xlink:href="#a"/><use xlink:href="#b" x="-.004"/><use xlink:href="#12"/></svg><svg x="1683"><use xlink:href="#a"/><use xlink:href="#b" x=".996"/><use xlink:href="#12"/></svg><svg x="1716"><use xlink:href="#a"/><use xlink:href="#b" x=".996"/><use xlink:href="#13"/></svg><svg x="1749"><use xlink:href="#a"/><use xlink:href="#b" x="6.996"/><use xlink:href="#13"/></svg><svg x="1782"><use xlink:href="#a"/><use xlink:href="#b" x="6.996"/><use xlink:href="#14"/></svg><svg x="1815"><use xlink:href="#a"/><use xlink:href="#b" x="11.996"/><use xlink:href="#14"/></svg><svg x="1848"><use xlink:href="#a"/><use xlink:href="#15"/></svg><svg x="1881"><use xlink:href="#a"/><use xlink:href="#b" x="11.996"/><use xlink:href="#15"/></svg><svg x="1914"><use xlink:href="#a"/><use xlink:href="#b" x="12.996"/><use xlink:href="#15"/></svg><svg x="1947"><use xlink:href="#a"/><use xlink:href="#b" x="12.996"/><use xlink:href="#16"/></svg><svg x="1980"><use xlink:href="#a"/><use xlink:href="#b" x="18.996"/><use xlink:href="#16"/></svg><svg x="2013"><use xlink:href="#a"/><use xlink:href="#17"/></svg><svg x="2046"><use xlink:href="#a"/><use xlink:href="#b" x="18.996"/><use xlink:href="#17"/></svg><svg x="2079"><use xlink:href="#a"/><use xlink:href="#b" x="26.996"/><use xlink:href="#17"/></svg><svg x="2112"><use xlink:href="#a"/><use xlink:href="#18"/></svg><svg x="2145"><use xlink:href="#a"/><use xlink:href="#b" x="26.996"/><use xlink:href="#18"/></svg><svg x="2178"><use xlink:href="#a"/><use xlink:href="#b" x="6.996"/><use xlink:href="#18"/></svg><svg x="2211"><use xlink:href="#a"/><use xlink:href="#b" x="6.996"/><use xlink:href="#14"/></svg><svg x="2244"><use xlink:href="#a"/><use xlink:href="#b" x=".996"/><use xlink:href="#14"/></svg><svg x="2277"><use xlink:href="#a"/><use xlink:href="#13"/></svg><svg x="2310"><use xlink:href="#a"/><use xlink:href="#b" x=".996"/><use xlink:href="#13"/></svg><svg x="2343"><use xlink:href="#a"/><use xlink:href="#b" x="6.996"/><use xlink:href="#13"/></svg><svg x="2376"><use xlink:href="#a"/><use xlink:href="#b" x="6.996"/><use xlink:href="#14"/></svg><svg x="2409"><use xlink:href="#a"/><use xlink:href="#b" x="26.996"/><use xlink:href="#14"/></svg><svg x="2442"><use xlink:href="#a"/><use xlink:href="#b" x="26.996"/><use xlink:href="#18"/></svg><svg x="2475"><use xlink:href="#a"/><use xlink:href="#b" x="26.996"/><use xlink:href="#18"/><use xlink:href="#19" y="2.171"/></svg><svg x="2508"><use xlink:href="#a"/><use xlink:href="#b" x="26.996"/><use xlink:href="#18"/><use xlink:href="#20" y="2.171"/></svg><svg x="2541"><use xlink:href="#a"/><use xlink:href="#b" x="26.996"/><use xlink:href="#18"/><text y="3.841" class="c">SPC</text><text x="4.008" y="3.841" class="c">u</text></svg><svg x="2574"><use xlink:href="#a"/><use xlink:href="#b" x="26.996"/><use xlink:href="#18"/><text y="3.841" class="c">C-u</text></svg><svg x="2607"><use xlink:href="#a"/><use xlink:href="#b" x="26.996"/><use xlink:href="#18"/><use xlink:href="#21" y="2.171"/></svg><svg x="2640"><use xlink:href="#a"/><use xlink:href="#b" x="26.996"/><use xlink:href="#18"/><use xlink:href="#21" y="2.171"/></svg><svg x="2673"><use xlink:href="#a"/><use xlink:href="#b" x="26.996"/><use xlink:href="#18"/><text y="3.841" class="c">C-u</text><text x="4.008" y="3.841" class="c">q</text></svg><svg x="2706"><use xlink:href="#a"/><use xlink:href="#b" x="26.996"/></svg><svg x="2739"><use xlink:href="#a"/><use xlink:href="#b" x="26.996"/><text x="5.01" y="3.841" class="c">-</text></svg><svg x="2772"><use xlink:href="#a"/><use xlink:href="#b" x="26.996"/></svg><svg x="2805"><use xlink:href="#a"/><use xlink:href="#b" x="26.996"/><text y="3.841" class="c">f</text></svg><svg x="2838"><use xlink:href="#a"/><use xlink:href="#b" x="26.996"/></svg><svg x="2871"><use xlink:href="#a"/><use xlink:href="#22"/></svg><svg x="2904"><use xlink:href="#a"/><use xlink:href="#b" x="18.996"/><use xlink:href="#22"/></svg><svg x="2937"><use xlink:href="#a"/><use xlink:href="#23"/></svg><svg x="2970"><use xlink:href="#a"/><use xlink:href="#b" x="18.996"/><use xlink:href="#23"/></svg><svg x="3003"><use xlink:href="#a"/><use xlink:href="#b" x="12.996"/><use xlink:href="#23"/></svg><svg x="3036"><use xlink:href="#a"/><use xlink:href="#b" x="12.996"/><use xlink:href="#24"/></svg><svg x="3069"><use xlink:href="#a"/><use xlink:href="#b" x="18.996"/><use xlink:href="#24"/></svg><svg x="3102"><use xlink:href="#a"/><use xlink:href="#b" x="18.996"/><use xlink:href="#23"/></svg><svg x="3135"><use xlink:href="#a"/><use xlink:href="#b" x="12.996"/><use xlink:href="#23"/></svg><svg x="3168"><use xlink:href="#a"/><use xlink:href="#b" x="12.996"/><use xlink:href="#24"/></svg><svg x="3201"><use xlink:href="#a"/><use xlink:href="#b" x="11.996"/><use xlink:href="#24"/></svg><svg x="3234"><use xlink:href="#a"/><use xlink:href="#b" x="11.996"/><use xlink:href="#25"/></svg><svg x="3267"><use xlink:href="#a"/><use xlink:href="#b" x="6.996"/><use xlink:href="#25"/></svg><svg x="3300"><use xlink:href="#a"/><use xlink:href="#b" x="6.996"/><use xlink:href="#26"/></svg><svg x="3333"><use xlink:href="#a"/><use xlink:href="#b" x=".996"/><use xlink:href="#26"/></svg><svg x="3366"><use xlink:href="#a"/><use xlink:href="#27"/></svg><svg x="3399"><use xlink:href="#a"/><use xlink:href="#b" x=".996"/><use xlink:href="#27"/></svg><svg x="3432"><use xlink:href="#a"/><use xlink:href="#b" x="-.004"/><use xlink:href="#27"/></svg><svg x="3465"><use xlink:href="#a"/><use xlink:href="#b" x="-.004"/><use xlink:href="#12"/></svg><svg x="3498"><use xlink:href="#a"/><use xlink:href="#b" x="-.004"/><use xlink:href="#12"/><use xlink:href="#19" y="2.171"/></svg><svg x="3531"><use xlink:href="#a"/><use xlink:href="#b" x="-.004"/><use xlink:href="#12"/><use xlink:href="#20" y="2.171"/></svg><svg x="3564"><use xlink:href="#a"/><use xlink:href="#b" x="-.004"/><use xlink:href="#12"/><text y="3.841" class="c">SPC</text><text x="4.008" y="3.841" class="c">q</text></svg><svg x="3597"><use xlink:href="#a"/><use xlink:href="#b" x="-.004"/><use xlink:href="#12"/><text y="3.841" class="c">SPC</text><text x="4.008" y="3.841" class="c">q-</text></svg><svg x="3630"><use xlink:href="#a"/><use xlink:href="#b" x="-.004"/><use xlink:href="#12"/><text y="3.841" class="c">SPC</text><text x="4.008" y="3.841" class="c">q</text><text x="6.012" y="3.841" class="c">q</text></svg><svg x="3663"><use xlink:href="#a"/><use xlink:href="#b" x="-.004"/><use xlink:href="#28"/></svg><svg x="3696"><use xlink:href="#a"/><use xlink:href="#b" x="-.004"/><text y="1.67" class="c">&quot;.local/etc/workspaces/autosave&quot;</text><text y="3.841" class="c">2L,</text><text x="4.008" y="3.841" class="c">1448C</text><text x="10.02" y="3.841" class="c">written</text></svg><svg x="3729"><use xlink:href="#a"/><use xlink:href="#b" x="3.996" y="2.146"/><text y="1.67" class="i">ore</text><text x="4.008" y="1.67" class="i">demons</text><text x="11.022" y="1.67" class="i">to</text><text x="14.028" y="1.67" class="i">toast!</text><text x="22.044" y="1.67" class="i">Quit?</text><text x="28.056" y="1.67" class="i">(y</text><text x="31.062" y="1.67" class="i">or</text><use xlink:href="#29" y="2.171"/></svg><svg x="3762"><use xlink:href="#a"/><use xlink:href="#b" x="31.996" y="2.146"/><text y="1.67" class="c">((foo)</text><text x="7.014" y="1.67" class="c">(bar</text><text x="12.024" y="1.67" class="c">((baz)</text><text x="19.038" y="1.67" class="c">(box)))</text><text x="27.054" y="1.67" class="c">(you))</text><use xlink:href="#29" y="2.171"/></svg><svg x="3795"><use xlink:href="#a"/><use xlink:href="#b" x="31.996" y="2.146"/><use xlink:href="#30"/><use xlink:href="#31" y="2.171"/></svg><svg x="3828"><use xlink:href="#a"/><use xlink:href="#b" x="-.004" y="2.146"/><use xlink:href="#30"/><use xlink:href="#31" y="2.171"/></svg><svg x="3861"><use xlink:href="#a"/><use xlink:href="#b" x="-.004"/><use xlink:href="#32"/><text x="1.002" y="3.841" class="c">n)</text><text x="4.008" y="3.841" class="c">y</text></svg><svg x="3894"><use xlink:href="#a"/><use xlink:href="#b" x="-.004"/><use xlink:href="#32"/><text y="3.841" class="c">No</text><text x="3.006" y="3.841" class="c">projects</text><text x="12.024" y="3.841" class="c">needed</text><text x="19.038" y="3.841" class="c">to</text><text x="22.044" y="3.841" class="c">be</text><text x="25.05" y="3.841" class="c">removed</text></svg><svg x="3927"><use xlink:href="#a"/><use xlink:href="#b" x="-.004"/><use xlink:href="#28"/></svg><svg x="3960"><use xlink:href="#a"/><use xlink:href="#b" x="-.004"/><use xlink:href="#33"/><text y="3.841" class="c">7C</text><text x="3.006" y="3.841" class="c">written</text></svg><svg x="3993"><use xlink:href="#a"/><use xlink:href="#b" x="-.004"/><use xlink:href="#33"/><text y="3.841" class="c">Cleaning</text><text x="9.018" y="3.841" class="c">up</text><text x="12.024" y="3.841" class="c">the</text><text x="16.032" y="3.841" class="c">recentf</text><text x="24.048" y="3.841" class="c">list...</text></svg><svg x="4026"><use xlink:href="#a"/><use xlink:href="#b" x="-.004"/><text y="1.67" class="c">ppets/kdesc</text><text x="12.024" y="1.67" class="c">removed</text><text x="20.04" y="1.67" class="c">from</text><text x="25.05" y="1.67" class="c">the</text><text x="29.058" y="1.67" class="c">rece</text><text y="3.841" class="c">ntf</text><text x="4.008" y="3.841" class="c">list</text></svg><svg x="4059"><use xlink:href="#a"/><use xlink:href="#b" x="-.004"/><text y="1.67" class="c">Cleaning</text><text x="9.018" y="1.67" class="c">up</text><text x="12.024" y="1.67" class="c">the</text><text x="16.032" y="1.67" class="c">recentf</text><text x="24.048" y="1.67" class="c">list...do</text><text y="3.841" class="c">ne</text><text x="3.006" y="3.841" class="c">(1</text><text x="6.012" y="3.841" class="c">removed)</text></svg><svg x="4092"><use xlink:href="#a"/><use xlink:href="#b" x="-.004"/><use xlink:href="#28"/><text y="3.841" class="c">local/cache/saveplace</text></svg><svg x="4125"><use xlink:href="#a"/><use xlink:href="#b" x="-.004" y="2.146"/><use xlink:href="#2"/></svg><svg x="4158"><use xlink:href="#a"/><use xlink:href="#b" x="-.004" y="2.146"/></svg><svg x="4191"><use xlink:href="#a"/><use xlink:href="#b" x="-.004" y="2.146"/></svg><svg x="4224"><use xlink:href="#a"/><use xlink:href="#b" x="29.996" y="2.146"/><use xlink:href="#1" y="2.171"/></svg></svg></g></g></svg></svg>