<svg xmlns="http://www.w3.org/2000/svg" xmlns:xlink="http://www.w3.org/1999/xlink" width="610" height="108.55"><rect width="610" height="108.55" rx="0" ry="0" class="a"/><svg height="108.55" viewBox="0 0 61 10.855" width="610" xmlns="http://www.w3.org/2000/svg" xmlns:xlink="http://www.w3.org/1999/xlink"><style>@keyframes x{0%{transform:translateX(-61px)}.12%{transform:translateX(-183px)}.46%{transform:translateX(-305px)}.93%{transform:translateX(-366px)}2.56%{transform:translateX(-427px)}2.98%{transform:translateX(-488px)}3.38%{transform:translateX(-549px)}12.99%{transform:translateX(-610px)}13.39%{transform:translateX(-671px)}22.48%{transform:translateX(-732px)}25.64%{transform:translateX(-793px)}26.02%{transform:translateX(-854px)}27.89%{transform:translateX(-915px)}27.9%{transform:translateX(-976px)}28.28%{transform:translateX(-1037px)}29.62%{transform:translateX(-1098px)}30.01%{transform:translateX(-1159px)}41.07%{transform:translateX(-1220px)}41.45%{transform:translateX(-1281px)}42.93%{transform:translateX(-1342px)}43.69%{transform:translateX(-1403px)}44.06%{transform:translateX(-1464px)}45.54%{transform:translateX(-1525px)}59.75%{transform:translateX(-1586px)}60.13%{transform:translateX(-1647px)}62.99%{transform:translateX(-1708px)}63.36%{transform:translateX(-1769px)}70.71%{transform:translateX(-1830px)}74.02%{transform:translateX(-1891px)}74.09%{transform:translateX(-1952px)}74.1%{transform:translateX(-2013px)}75.65%{transform:translateX(-2135px)}78.14%{transform:translateX(-2196px)}79.02%{transform:translateX(-2257px)}79.03%{transform:translateX(-2318px)}79.15%{transform:translateX(-2379px)}79.52%{transform:translateX(-2440px)}85.68%{transform:translateX(-2562px)}85.92%{transform:translateX(-2623px)}86.72%{transform:translateX(-2684px)}86.73%{transform:translateX(-2745px)}86.79%{transform:translateX(-2806px)}86.8%{transform:translateX(-2867px)}86.88%{transform:translateX(-2928px)}86.91%{transform:translateX(-2989px)}86.93%{transform:translateX(-3050px)}87.02%{transform:translateX(-3172px)}87.07%{transform:translateX(-3233px)}99.86%{transform:translateX(-3294px)}99.87%{transform:translateX(-3355px)}99.9%{transform:translateX(-3416px)}99.94%{transform:translateX(-3477px)}to{transform:translateX(-3538px)}}.a{fill:#fff}.c,.d,.e{white-space:pre}.c{fill:#d7afd7;text-decoration:underline}.d,.e{fill:#5fafff}.e{fill:#87af5f}.f,.g,.h,.k,.l,.n{fill:#bcbcbc;white-space:pre}.g,.h,.k,.l,.n{fill:#d787d7}.h,.k,.l,.n{fill:#ffaf87}.k,.l,.n{fill:#ff5f5f;font-weight:700}.l,.n{fill:#5fafff}.n{fill:#ffaf87}.o,.p,.q,.r{fill:#828282;white-space:pre}.p,.q,.r{fill:#af00ff}.q,.r{fill:#00f}.r{fill:#87005f}.s{fill:#008787}.s,.t,.u{white-space:pre}.t{fill:#000;font-weight:700}.u{fill:#0000d7}</style><g font-family="Monaco,Consolas,Menlo,'Bitstream Vera Sans Mono','Powerline Symbols',monospace" font-size="1.67"><defs><symbol id="1"><text x="8.016" y="1.67" class="c">evil-insert-state-cursor</text><text x="33.066" y="1.67" class="d">&apos;</text><text x="34.068" y="1.67" class="e">(</text><text x="35.07" y="1.67" class="f">box</text><text x="39.078" y="1.67" class="e">&quot;gray&quot;)</text><text x="46.092" y="1.67" class="g">)</text></symbol><symbol id="2"><text x="2.004" y="1.67" class="g">(</text><text x="3.006" y="1.67" class="d">ignor</text><text x="8.016" y="1.67" class="c">evil-normal-state-cursor</text><text x="32.064" y="1.67" class="h">om-plain</text><text x="40.08" y="1.67" class="e">)</text><text x="41.082" y="1.67" class="g">)</text></symbol><symbol id="3">0<text y="1.67" class="f"></text>0<text x="1.002" y="1.67" style="white-space:pre" fill="#87af5f" font-weight="700">&lt;N&gt;</text>0<text x="6.012" y="1.67" class="f">470</text>0<text x="14.028" y="1.67" style="white-space:pre" fill="#bcbcbc" font-weight="700">scr</text>0<text x="17.034" y="1.67" class="k">(</text><text x="18.036" y="1.67" class="g">load-theme</text><text x="29.058" y="1.67" class="d">&apos;</text><text x="30.06" y="1.67" class="h">doom-plain</text>0<text x="40.08" y="1.67" class="k">)</text>0<text x="41.082" y="1.67" class="f">LF</text>0<text x="51.102" y="1.67" class="l">Elisp</text>0<text x="58.116" y="1.67" class="f"></text>0<text x="59.118" y="1.67" style="white-space:pre" fill="#818383" font-weight="700">*</text>0<text x="60.12" y="1.67" class="f"></text></symbol><symbol id="4">0<text x="45.09" y="1.67" class="f">LF</text>0<text x="49.098" y="1.67" class="l">Elisp</text>0<text x="56.112" y="1.67" class="f"></text>0<text x="57.114" y="1.67" class="n">!</text>0<text x="58.116" y="1.67" class="f"></text>0<text x="59.118" y="1.67" class="n">7</text></symbol><symbol id="5"><text y="1.67" class="f">SPC</text><text x="4.008" y="1.67" class="f">m</text><text x="6.012" y="1.67" class="f">e</text><text x="8.016" y="1.67" class="f">b</text></symbol><symbol id="6"><text y="1.67" class="o">(</text><text x="1.002" y="1.67" class="p">defun</text><text x="7.014" y="1.67" class="q">append</text><text x="14.028" y="1.67" class="o">(x</text><text x="17.034" y="1.67" class="o">y)</text></symbol><symbol id="7"><text x="2.004" y="1.67" class="r">&quot;Append</text><text x="10.02" y="1.67" class="r">X</text><text x="12.024" y="1.67" class="r">to</text><text x="15.03" y="1.67" class="r">Y.&quot;</text></symbol><symbol id="8"><text x="2.004" y="1.67" class="o">(</text><text x="3.006" y="1.67" class="p">cond</text></symbol><symbol id="9"><text x="3.006" y="1.67" class="o">((</text><text x="5.01" y="1.67" class="s">not</text><text x="9.018" y="1.67" class="o">x)</text><text x="12.024" y="1.67" class="o">y)</text></symbol><symbol id="10"><text x="3.006" y="1.67" class="o">(t</text><text x="6.012" y="1.67" class="o">(</text><text x="7.014" y="1.67" class="s">cons</text><text x="12.024" y="1.67" class="o">(</text><text x="13.026" y="1.67" class="s">car</text><text x="17.034" y="1.67" class="o">x)</text><text x="20.04" y="1.67" class="o">(</text><text x="21.042" y="1.67" class="s">append</text><text x="28.056" y="1.67" class="o">(</text><text x="29.058" y="1.67" class="s">cdr</text><text x="33.066" y="1.67" class="o">x)</text><text x="36.072" y="1.67" class="o">y)))))</text></symbol><symbol id="11"><text y="1.67" class="t">(</text><text x="1.002" y="1.67" class="p">defun</text><text x="7.014" y="1.67" class="q">append</text><text x="14.028" y="1.67" class="o">(x</text><text x="17.034" y="1.67" class="o">y)</text></symbol><symbol id="12"><text x="3.006" y="1.67" class="o">(t</text><text x="6.012" y="1.67" class="o">(</text><text x="7.014" y="1.67" class="s">cons</text><text x="12.024" y="1.67" class="o">(</text><text x="13.026" y="1.67" class="s">car</text><text x="17.034" y="1.67" class="o">x)</text><text x="20.04" y="1.67" class="o">(</text><text x="21.042" y="1.67" class="s">append</text><text x="28.056" y="1.67" class="o">(</text><text x="29.058" y="1.67" class="s">cdr</text><text x="33.066" y="1.67" class="o">x)</text><text x="36.072" y="1.67" class="o">y))))</text><text x="41.082" y="1.67" class="t">)</text></symbol><symbol id="13"><text y="1.67" class="t">()</text><text x="3.006" y="1.67" class="o">(</text><text x="4.008" y="1.67" class="p">defun</text><text x="10.02" y="1.67" class="q">append</text><text x="17.034" y="1.67" class="o">(x</text><text x="20.04" y="1.67" class="o">y)</text></symbol><symbol id="14"><text y="1.67" class="t">(</text><text x="1.002" y="1.67" class="o">u</text><text x="2.004" y="1.67" class="t">)</text><text x="4.008" y="1.67" class="o">(</text><text x="5.01" y="1.67" class="p">defun</text><text x="11.022" y="1.67" class="q">append</text><text x="18.036" y="1.67" class="o">(x</text><text x="21.042" y="1.67" class="o">y)</text></symbol><symbol id="15"><text y="1.67" class="o">(u)</text><text x="4.008" y="1.67" class="o">(</text><text x="5.01" y="1.67" class="p">defun</text><text x="11.022" y="1.67" class="q">append</text><text x="18.036" y="1.67" class="o">(x</text><text x="21.042" y="1.67" class="o">y)</text></symbol><symbol id="16"><text y="1.67" class="o">Undot</text><text x="6.012" y="1.67" class="o">(</text><text x="7.014" y="1.67" class="s">cons</text><text x="12.024" y="1.67" class="o">(</text><text x="13.026" y="1.67" class="s">car</text><text x="17.034" y="1.67" class="o">x)</text><text x="20.04" y="1.67" class="o">(</text><text x="21.042" y="1.67" class="s">append</text><text x="28.056" y="1.67" class="o">(</text><text x="29.058" y="1.67" class="s">cdr</text><text x="33.066" y="1.67" class="o">x)</text><text x="36.072" y="1.67" class="o">y)))))</text></symbol><symbol id="17"><text x="41.082" y="1.67" class="o">)</text></symbol><symbol id="18"><text y="1.67" class="p">defun</text><text x="5.01" y="1.67" class="o">:</text><text x="7.014" y="1.67" class="o">(NAME</text><text x="13.026" y="1.67" class="o">ARGLIST</text><text x="21.042" y="1.67" class="o">&amp;optional</text><text x="31.062" y="1.67" class="t">DOCSTRING</text><text x="41.082" y="1.67" class="o">DECL</text><text x="46.092" y="1.67" class="o">&amp;rest</text><text x="52.104" y="1.67" class="o">BODY)</text></symbol><symbol id="19"><text y="1.67" class="o">(</text><text x="1.002" y="1.67" class="p">defun</text><text x="7.014" y="1.67" class="q">append</text><text x="14.028" y="1.67" class="t">(</text><text x="15.03" y="1.67" class="o">x</text><text x="17.034" y="1.67" class="o">y</text><text x="18.036" y="1.67" class="t">)</text></symbol><symbol id="20"><text y="1.67" class="u">›››</text><text x="4.008" y="1.67" class="u">(setq</text><text x="10.02" y="1.67" class="u">nothing</text><text x="18.036" y="1.67" class="u">t</text><text x="20.04" y="1.67" class="u">everything</text><text x="31.062" y="1.67" class="u">&apos;permitted</text><text x="41.082" y="1.67" class="o">)</text><text x="44.088" y="1.67" class="u">Quit?</text><text x="50.1" y="1.67" class="u">(y</text><text x="53.106" y="1.67" class="u">or</text><text x="56.112" y="1.67" class="u">n)</text></symbol><symbol id="21"><text y="1.67" class="o">Restored</text><text x="9.018" y="1.67" class="o">session:</text><text x="18.036" y="1.67" class="o">Wed</text><text x="22.044" y="1.67" class="o">Aug</text><text x="27.054" y="1.67" class="o">4</text><text x="29.058" y="1.67" class="o">13:43:20</text><text x="38.076" y="1.67" class="o">EDT</text><text x="42.084" y="1.67" class="o">2021</text></symbol><symbol id="22"><text y="1.67" class="o">ethanleba@ethans-mbp</text><text x="21.042" y="1.67" class="o">assets</text><text x="28.056" y="1.67" class="o">%</text><text x="30.06" y="1.67" class="o">emacs</text><text x="36.072" y="1.67" class="o">-nw</text><text x="40.08" y="1.67" class="o">~/Documents/emacs-pkg</text></symbol><symbol id="23"><text y="1.67" class="o">-dev/screencast.el</text></symbol><symbol id="24"><text y="1.67" class="o">ethanleba@ethans-mbp</text><text x="21.042" y="1.67" class="o">assets</text><text x="28.056" y="1.67" class="o">%</text></symbol><symbol id="25"><text y="1.67" class="o">Saving</text><text x="7.014" y="1.67" class="o">session...</text></symbol><symbol id="26"><text y="1.67" class="o">...saving</text><text x="10.02" y="1.67" class="o">history...truncating</text><text x="31.062" y="1.67" class="o">history</text><text x="39.078" y="1.67" class="o">files...</text></symbol><symbol id="a"><path fill="transparent" d="M0 0h61v5H0z"/></symbol><symbol id="b"><path fill="#cdced4" d="M0 0h1.102v2.171H0z"/></symbol></defs><path class="a" d="M0 0h61v10.855H0z"/><g style="animation-duration:27.112866s;animation-iteration-count:infinite;animation-name:x;animation-timing-function:steps(1,end)"><svg width="3599"><svg><use xlink:href="#a"/><use xlink:href="#b" x="39.996" y="6.488"/><use xlink:href="#1"/><use xlink:href="#2" y="2.171"/><use xlink:href="#3" y="4.342"/><use xlink:href="#4" y="6.513"/><text y="10.354" class="f">SPC</text></svg><svg x="61"><use xlink:href="#a"/><use xlink:href="#b" x="39.996" y="6.488"/><use xlink:href="#1"/><use xlink:href="#2" y="2.171"/><use xlink:href="#3" y="4.342"/><use xlink:href="#4" y="6.513"/><text y="10.354" class="f">SPC-</text></svg><svg x="122"><use xlink:href="#a"/><use xlink:href="#b" x="39.996" y="6.488"/><use xlink:href="#1"/><use xlink:href="#2" y="2.171"/><use xlink:href="#3" y="4.342"/><use xlink:href="#4" y="6.513"/><text y="10.354" class="f">SPC</text><text x="4.008" y="10.354" class="f">m</text></svg><svg x="183"><use xlink:href="#a"/><use xlink:href="#b" x="39.996" y="6.488"/><use xlink:href="#1"/><use xlink:href="#2" y="2.171"/><use xlink:href="#3" y="4.342"/><use xlink:href="#4" y="6.513"/><text y="10.354" class="f">SPC</text><text x="4.008" y="10.354" class="f">m-</text></svg><svg x="244"><use xlink:href="#a"/><use xlink:href="#b" x="39.996" y="6.488"/><use xlink:href="#1"/><use xlink:href="#2" y="2.171"/><use xlink:href="#3" y="4.342"/><use xlink:href="#4" y="6.513"/><text y="10.354" class="f">SPC</text><text x="4.008" y="10.354" class="f">m</text><text x="6.012" y="10.354" class="f">e</text></svg><svg x="305"><use xlink:href="#a"/><use xlink:href="#b" x="39.996" y="6.488"/><use xlink:href="#1"/><use xlink:href="#2" y="2.171"/><use xlink:href="#3" y="4.342"/><use xlink:href="#4" y="6.513"/><text y="10.354" class="f">SPC</text><text x="4.008" y="10.354" class="f">m</text><text x="6.012" y="10.354" class="f">e-</text></svg><svg x="366"><use xlink:href="#a"/><use xlink:href="#b" x="39.996" y="6.488"/><use xlink:href="#1"/><use xlink:href="#2" y="2.171"/><use xlink:href="#3" y="4.342"/><use xlink:href="#4" y="6.513"/><use xlink:href="#5" y="8.684"/></svg><svg x="427"><use xlink:href="#a"/><use xlink:href="#b" x="39.996" y="6.488"/><use xlink:href="#2"/><use xlink:href="#3" y="2.171"/><use xlink:href="#4" y="4.342"/><use xlink:href="#5" y="6.513"/></svg><svg x="488"><use xlink:href="#a"/><use xlink:href="#b" x="-.004"/><use xlink:href="#6"/><use xlink:href="#7" y="2.171"/><use xlink:href="#8" y="4.342"/><use xlink:href="#9" y="6.513"/><use xlink:href="#10" y="8.684"/></svg><svg x="549"><use xlink:href="#a"/><use xlink:href="#b" x="-.004"/><use xlink:href="#11"/><use xlink:href="#7" y="2.171"/><use xlink:href="#8" y="4.342"/><use xlink:href="#9" y="6.513"/><use xlink:href="#12" y="8.684"/></svg><svg x="610"><use xlink:href="#a"/><use xlink:href="#b" x=".996"/><text y="1.67" class="o">()</text><text x="3.006" y="1.67" class="t">(</text><text x="4.008" y="1.67" class="p">defun</text><text x="10.02" y="1.67" class="q">append</text><text x="17.034" y="1.67" class="o">(x</text><text x="20.04" y="1.67" class="o">y)</text><use xlink:href="#7" y="2.171"/><use xlink:href="#8" y="4.342"/><use xlink:href="#9" y="6.513"/><use xlink:href="#12" y="8.684"/></svg><svg x="671"><use xlink:href="#a"/><use xlink:href="#b" x=".996"/><use xlink:href="#13"/><use xlink:href="#7" y="2.171"/><use xlink:href="#8" y="4.342"/><use xlink:href="#9" y="6.513"/><use xlink:href="#10" y="8.684"/></svg><svg x="732"><use xlink:href="#a"/><use xlink:href="#b" x="1.996"/><use xlink:href="#14"/><use xlink:href="#7" y="2.171"/><use xlink:href="#8" y="4.342"/><use xlink:href="#9" y="6.513"/><use xlink:href="#10" y="8.684"/></svg><svg x="793"><use xlink:href="#a"/><use xlink:href="#b" x=".996"/><use xlink:href="#14"/><use xlink:href="#7" y="2.171"/><use xlink:href="#8" y="4.342"/><use xlink:href="#9" y="6.513"/><use xlink:href="#10" y="8.684"/></svg><svg x="854"><use xlink:href="#a"/><use xlink:href="#b" x=".996"/><use xlink:href="#15"/><use xlink:href="#7" y="2.171"/><use xlink:href="#8" y="4.342"/><use xlink:href="#9" y="6.513"/><use xlink:href="#10" y="8.684"/></svg><svg x="915"><use xlink:href="#a"/><use xlink:href="#b" x=".996"/><use xlink:href="#15"/><use xlink:href="#7" y="2.171"/><use xlink:href="#8" y="4.342"/><use xlink:href="#9" y="6.513"/><use xlink:href="#16" y="8.684"/></svg><svg x="976"><use xlink:href="#a"/><use xlink:href="#b" x=".996"/><text y="1.67" class="o">()</text><text x="3.006" y="1.67" class="o">(</text><text x="4.008" y="1.67" class="p">defun</text><text x="10.02" y="1.67" class="q">append</text><text x="17.034" y="1.67" class="o">(x</text><text x="20.04" y="1.67" class="o">y)</text><use xlink:href="#7" y="2.171"/><use xlink:href="#8" y="4.342"/><use xlink:href="#9" y="6.513"/><use xlink:href="#16" y="8.684"/></svg><svg x="1037"><use xlink:href="#a"/><use xlink:href="#b" x=".996"/><use xlink:href="#13"/><use xlink:href="#7" y="2.171"/><use xlink:href="#8" y="4.342"/><use xlink:href="#9" y="6.513"/><use xlink:href="#16" y="8.684"/></svg><svg x="1098"><use xlink:href="#a"/><use xlink:href="#b" x="-.004"/><use xlink:href="#6"/><use xlink:href="#7" y="2.171"/><use xlink:href="#8" y="4.342"/><use xlink:href="#9" y="6.513"/><use xlink:href="#16" y="8.684"/></svg><svg x="1159"><use xlink:href="#a"/><use xlink:href="#b" x="-.004"/><use xlink:href="#11"/><use xlink:href="#7" y="2.171"/><use xlink:href="#8" y="4.342"/><use xlink:href="#9" y="6.513"/><text y="10.354" class="o">Undot</text><text x="6.012" y="10.354" class="o">(</text><text x="7.014" y="10.354" class="s">cons</text><text x="12.024" y="10.354" class="o">(</text><text x="13.026" y="10.354" class="s">car</text><text x="17.034" y="10.354" class="o">x)</text><text x="20.04" y="10.354" class="o">(</text><text x="21.042" y="10.354" class="s">append</text><text x="28.056" y="10.354" class="o">(</text><text x="29.058" y="10.354" class="s">cdr</text><text x="33.066" y="10.354" class="o">x)</text><text x="36.072" y="10.354" class="o">y))))</text><text x="41.082" y="10.354" class="t">)</text></svg><svg x="1220"><use xlink:href="#a"/><use xlink:href="#b" x="-.004" y="2.146"/><use xlink:href="#11"/><use xlink:href="#7" y="2.171"/><use xlink:href="#8" y="4.342"/><use xlink:href="#9" y="6.513"/></svg><svg x="1281"><use xlink:href="#a"/><use xlink:href="#b" x="-.004" y="2.146"/><use xlink:href="#6"/><use xlink:href="#7" y="2.171"/><use xlink:href="#8" y="4.342"/><use xlink:href="#9" y="6.513"/><use xlink:href="#17" y="8.684"/></svg><svg x="1342"><use xlink:href="#a"/><use xlink:href="#b" x="-.004" y="2.146"/><use xlink:href="#6"/><use xlink:href="#7" y="2.171"/><use xlink:href="#8" y="4.342"/><use xlink:href="#9" y="6.513"/><use xlink:href="#18" y="8.684"/></svg><svg x="1403"><use xlink:href="#a"/><use xlink:href="#b" x="-.004"/><use xlink:href="#6"/><use xlink:href="#7" y="2.171"/><use xlink:href="#8" y="4.342"/><use xlink:href="#9" y="6.513"/><use xlink:href="#18" y="8.684"/></svg><svg x="1464"><use xlink:href="#a"/><use xlink:href="#b" x="-.004"/><use xlink:href="#11"/><use xlink:href="#7" y="2.171"/><use xlink:href="#8" y="4.342"/><use xlink:href="#9" y="6.513"/><text y="10.354" class="p">defun</text><text x="5.01" y="10.354" class="o">:</text><text x="7.014" y="10.354" class="o">(NAME</text><text x="13.026" y="10.354" class="o">ARGLIST</text><text x="21.042" y="10.354" class="o">&amp;optional</text><text x="31.062" y="10.354" class="t">DOCSTRING</text><text x="41.082" y="10.354" class="t">)</text><text x="42.084" y="10.354" class="o">ECL</text><text x="46.092" y="10.354" class="o">&amp;rest</text><text x="52.104" y="10.354" class="o">BODY)</text></svg><svg x="1525"><use xlink:href="#a"/><use xlink:href="#b" x="-.004"/><use xlink:href="#11"/><use xlink:href="#7" y="2.171"/><use xlink:href="#8" y="4.342"/><use xlink:href="#9" y="6.513"/></svg><svg x="1586"><use xlink:href="#a"/><use xlink:href="#b" x="13.996"/><use xlink:href="#11"/><use xlink:href="#7" y="2.171"/><use xlink:href="#8" y="4.342"/><use xlink:href="#9" y="6.513"/></svg><svg x="1647"><use xlink:href="#a"/><use xlink:href="#b" x="13.996"/><use xlink:href="#19"/><use xlink:href="#7" y="2.171"/><use xlink:href="#8" y="4.342"/><use xlink:href="#9" y="6.513"/><use xlink:href="#17" y="8.684"/></svg><svg x="1708"><use xlink:href="#a"/><use xlink:href="#b" x="-.004"/><use xlink:href="#19"/><use xlink:href="#7" y="2.171"/><use xlink:href="#8" y="4.342"/><use xlink:href="#9" y="6.513"/><use xlink:href="#17" y="8.684"/></svg><svg x="1769"><use xlink:href="#a"/><use xlink:href="#b" x="-.004"/><use xlink:href="#11"/><use xlink:href="#7" y="2.171"/><use xlink:href="#8" y="4.342"/><use xlink:href="#9" y="6.513"/><text x="41.082" y="10.354" class="t">)</text></svg><svg x="1830"><use xlink:href="#a"/><use xlink:href="#b" x="-.004"/><use xlink:href="#11"/><use xlink:href="#7" y="2.171"/><use xlink:href="#8" y="4.342"/><use xlink:href="#9" y="6.513"/><text y="10.354" class="o">Quit</text><text x="41.082" y="10.354" class="t">)</text></svg><svg x="1891"><use xlink:href="#a"/><use xlink:href="#b" x="-.004"/><use xlink:href="#11"/><use xlink:href="#7" y="2.171"/><use xlink:href="#8" y="4.342"/><use xlink:href="#9" y="6.513"/></svg><svg x="1952"><use xlink:href="#a"/><use xlink:href="#b" x="-.004"/><use xlink:href="#11"/><use xlink:href="#7" y="2.171"/><use xlink:href="#8" y="4.342"/><use xlink:href="#9" y="6.513"/><text y="10.354" class="o">SPC</text></svg><svg x="2013"><use xlink:href="#a"/><use xlink:href="#b" x="-.004"/><use xlink:href="#11"/><use xlink:href="#7" y="2.171"/><use xlink:href="#8" y="4.342"/><use xlink:href="#9" y="6.513"/><text y="10.354" class="o">SPC-</text></svg><svg x="2074"><use xlink:href="#a"/><use xlink:href="#b" x="-.004"/><use xlink:href="#11"/><use xlink:href="#7" y="2.171"/><use xlink:href="#8" y="4.342"/><use xlink:href="#9" y="6.513"/><text y="10.354" class="o">SPC</text><text x="4.008" y="10.354" class="o">q</text></svg><svg x="2135"><use xlink:href="#a"/><use xlink:href="#b" x="-.004"/><use xlink:href="#11"/><use xlink:href="#7" y="2.171"/><use xlink:href="#8" y="4.342"/><use xlink:href="#9" y="6.513"/><text y="10.354" class="o">SPC</text><text x="4.008" y="10.354" class="o">q-</text></svg><svg x="2196"><use xlink:href="#a"/><use xlink:href="#b" x="-.004"/><use xlink:href="#11"/><use xlink:href="#7" y="2.171"/><use xlink:href="#8" y="4.342"/><use xlink:href="#9" y="6.513"/><text y="10.354" class="o">SPC</text><text x="4.008" y="10.354" class="o">q</text><text x="6.012" y="10.354" class="o">q</text></svg><svg x="2257"><use xlink:href="#a"/><use xlink:href="#b" x="-.004"/><use xlink:href="#11"/><use xlink:href="#7" y="2.171"/><use xlink:href="#8" y="4.342"/><use xlink:href="#9" y="6.513"/></svg><svg x="2318"><use xlink:href="#a"/><use xlink:href="#b" x="-.004"/><use xlink:href="#11"/><use xlink:href="#7" y="2.171"/><use xlink:href="#8" y="4.342"/><use xlink:href="#9" y="6.513"/><text y="10.354" class="o">&quot;.local/etc/workspaces/autosave&quot;</text><text x="33.066" y="10.354" class="o">2L,</text><text x="37.074" y="10.354" class="o">1446C</text><text x="43.086" y="10.354" class="o">written</text></svg><svg x="2379"><use xlink:href="#a"/><use xlink:href="#b" x="58.996" y="8.659"/><use xlink:href="#11"/><use xlink:href="#7" y="2.171"/><use xlink:href="#8" y="4.342"/><use xlink:href="#9" y="6.513"/><text y="10.354" class="u">›››</text><text x="4.008" y="10.354" class="u">(setq</text><text x="10.02" y="10.354" class="u">nothing</text><text x="18.036" y="10.354" class="u">t</text><text x="20.04" y="10.354" class="u">everything</text><text x="31.062" y="10.354" class="u">&apos;permitted)</text><text x="44.088" y="10.354" class="u">Quit?</text><text x="50.1" y="10.354" class="u">(y</text><text x="53.106" y="10.354" class="u">or</text><text x="56.112" y="10.354" class="u">n)</text></svg><svg x="2440"><use xlink:href="#a"/><use xlink:href="#b" x="58.996" y="8.659"/><use xlink:href="#6"/><use xlink:href="#7" y="2.171"/><use xlink:href="#8" y="4.342"/><use xlink:href="#9" y="6.513"/><use xlink:href="#20" y="8.684"/></svg><svg x="2501"><use xlink:href="#a"/><use xlink:href="#b" x="-.004" y="8.659"/><use xlink:href="#6"/><use xlink:href="#7" y="2.171"/><use xlink:href="#8" y="4.342"/><use xlink:href="#9" y="6.513"/><use xlink:href="#20" y="8.684"/></svg><svg x="2562"><use xlink:href="#a"/><use xlink:href="#b" x="-.004"/><use xlink:href="#6"/><use xlink:href="#7" y="2.171"/><use xlink:href="#8" y="4.342"/><use xlink:href="#9" y="6.513"/><text y="10.354" class="o">›››</text><text x="4.008" y="10.354" class="o">(setq</text><text x="10.02" y="10.354" class="o">nothing</text><text x="18.036" y="10.354" class="o">t</text><text x="20.04" y="10.354" class="o">everything</text><text x="31.062" y="10.354" class="o">&apos;permitted)</text><text x="44.088" y="10.354" class="o">Quit?</text><text x="50.1" y="10.354" class="o">(y</text><text x="53.106" y="10.354" class="o">or</text><text x="56.112" y="10.354" class="o">n)</text><text x="59.118" y="10.354" class="o">y</text></svg><svg x="2623"><use xlink:href="#a"/><use xlink:href="#b" x="-.004"/><use xlink:href="#6"/><use xlink:href="#7" y="2.171"/><use xlink:href="#8" y="4.342"/><use xlink:href="#9" y="6.513"/><text y="10.354" class="o">No</text><text x="3.006" y="10.354" class="o">projects</text><text x="12.024" y="10.354" class="o">needed</text><text x="19.038" y="10.354" class="o">to</text><text x="22.044" y="10.354" class="o">be</text><text x="25.05" y="10.354" class="o">removed.</text></svg><svg x="2684"><use xlink:href="#a"/><use xlink:href="#b" x="-.004"/><use xlink:href="#6"/><use xlink:href="#7" y="2.171"/><use xlink:href="#8" y="4.342"/><use xlink:href="#9" y="6.513"/></svg><svg x="2745"><use xlink:href="#a"/><use xlink:href="#b" x="-.004"/><use xlink:href="#6"/><use xlink:href="#7" y="2.171"/><use xlink:href="#8" y="4.342"/><use xlink:href="#9" y="6.513"/><text y="10.354" class="o">&quot;.local/cache/recentf&quot;</text><text x="23.046" y="10.354" class="o">212L,</text><text x="29.058" y="10.354" class="o">14425C</text><text x="36.072" y="10.354" class="o">written</text></svg><svg x="2806"><use xlink:href="#a"/><use xlink:href="#b" x="-.004"/><use xlink:href="#6"/><use xlink:href="#7" y="2.171"/><use xlink:href="#8" y="4.342"/><use xlink:href="#9" y="6.513"/><text y="10.354" class="o">Cleaning</text><text x="9.018" y="10.354" class="o">up</text><text x="12.024" y="10.354" class="o">the</text><text x="16.032" y="10.354" class="o">recentf</text><text x="24.048" y="10.354" class="o">list...</text></svg><svg x="2867"><use xlink:href="#a"/><use xlink:href="#b" x="-.004"/><use xlink:href="#6"/><use xlink:href="#7" y="2.171"/><use xlink:href="#8" y="4.342"/><use xlink:href="#9" y="6.513"/><text y="10.354" class="o">the</text><text x="4.008" y="10.354" class="o">recentf</text><text x="12.024" y="10.354" class="o">list</text></svg><svg x="2928"><use xlink:href="#a"/><use xlink:href="#b" x="-.004"/><use xlink:href="#6"/><use xlink:href="#7" y="2.171"/><use xlink:href="#8" y="4.342"/><use xlink:href="#9" y="6.513"/><text y="10.354" class="o">Cleaning</text><text x="9.018" y="10.354" class="o">up</text><text x="12.024" y="10.354" class="o">the</text><text x="16.032" y="10.354" class="o">recentf</text><text x="24.048" y="10.354" class="o">list...done</text><text x="36.072" y="10.354" class="o">(1</text><text x="39.078" y="10.354" class="o">removed)</text></svg><svg x="2989"><use xlink:href="#a"/><use xlink:href="#b" x="-.004"/><use xlink:href="#6"/><use xlink:href="#7" y="2.171"/><use xlink:href="#8" y="4.342"/><use xlink:href="#9" y="6.513"/><text y="10.354" class="o">Wrote</text><text x="6.012" y="10.354" class="o">/Users/ethanleba/.emacs.d/.local/cache/saveplace</text></svg><svg x="3050"><use xlink:href="#a"/><use xlink:href="#b" x="-.004" y="6.488"/><use xlink:href="#21"/><use xlink:href="#22" y="2.171"/><use xlink:href="#23" y="4.342"/></svg><svg x="3111"><use xlink:href="#a"/><use xlink:href="#b" x="-.004" y="6.488"/><use xlink:href="#21"/><use xlink:href="#22" y="2.171"/><use xlink:href="#23" y="4.342"/></svg><svg x="3172"><use xlink:href="#a"/><use xlink:href="#b" x="-.004" y="6.488"/><use xlink:href="#21"/><use xlink:href="#22" y="2.171"/><use xlink:href="#23" y="4.342"/></svg><svg x="3233"><use xlink:href="#a"/><use xlink:href="#b" x="29.996" y="6.488"/><use xlink:href="#21"/><use xlink:href="#22" y="2.171"/><use xlink:href="#23" y="4.342"/><use xlink:href="#24" y="6.513"/></svg><svg x="3294"><use xlink:href="#a"/><use xlink:href="#b" x="-.004" y="8.659"/><use xlink:href="#21"/><use xlink:href="#22" y="2.171"/><use xlink:href="#23" y="4.342"/><use xlink:href="#24" y="6.513"/></svg><svg x="3355"><use xlink:href="#a"/><use xlink:href="#b" x="16.996" y="8.659"/><use xlink:href="#21"/><use xlink:href="#22" y="2.171"/><use xlink:href="#23" y="4.342"/><use xlink:href="#24" y="6.513"/><use xlink:href="#25" y="8.684"/></svg><svg x="3416"><use xlink:href="#a"/><use xlink:href="#b" x="19.996" y="8.659"/><use xlink:href="#22"/><use xlink:href="#23" y="2.171"/><use xlink:href="#24" y="4.342"/><use xlink:href="#25" y="6.513"/><text y="10.354" class="o">...saving</text><text x="10.02" y="10.354" class="o">history...</text></svg><svg x="3477"><use xlink:href="#a"/><use xlink:href="#b" x="46.996" y="8.659"/><use xlink:href="#22"/><use xlink:href="#23" y="2.171"/><use xlink:href="#24" y="4.342"/><use xlink:href="#25" y="6.513"/><use xlink:href="#26" y="8.684"/></svg><svg x="3538"><use xlink:href="#a"/><use xlink:href="#b" x="-.004" y="8.659"/><use xlink:href="#24"/><use xlink:href="#25" y="2.171"/><use xlink:href="#26" y="4.342"/><text y="8.183" class="o">...completed.</text></svg></svg></g></g></svg></svg>