<svg xmlns="http://www.w3.org/2000/svg" xmlns:xlink="http://www.w3.org/1999/xlink" width="330" height="21.71"><rect width="330" height="21.71" rx="0" ry="0" class="a"/><svg height="21.71" viewBox="0 0 33 2.171" width="330" xmlns="http://www.w3.org/2000/svg" xmlns:xlink="http://www.w3.org/1999/xlink"><style>@keyframes g{0%{transform:translateX(0)}7.7%{transform:translateX(-33px)}15.3%{transform:translateX(-66px)}23.1%{transform:translateX(-99px)}30.7%{transform:translateX(-132px)}38.5%{transform:translateX(-165px)}46.1%{transform:translateX(-231px)}53.9%{transform:translateX(-264px)}61.5%{transform:translateX(-297px)}69.2%{transform:translateX(-330px)}76.8%{transform:translateX(-363px)}76.9%{transform:translateX(-396px)}84.6%{transform:translateX(-429px)}92.2%{transform:translateX(-462px)}92.3%{transform:translateX(-495px)}to{transform:translateX(-528px)}}.a{fill:#fff}.c,.d{white-space:pre}.c{fill:#000;font-weight:700}.d{fill:#828282}</style><g font-family="Monaco,Consolas,Menlo,'Bitstream Vera Sans Mono','Powerline Symbols',monospace" font-size="1.67"><defs><symbol id="1"><text y="1.67" class="c">(</text><text x="1.002" y="1.67" class="d">(foo)</text><text x="7.014" y="1.67" class="d">(bar</text><text x="12.024" y="1.67" class="d">((baz)</text><text x="19.038" y="1.67" class="d">(box)))</text><text x="27.054" y="1.67" class="d">(you)</text><text x="32.064" y="1.67" class="c">)</text></symbol><symbol id="2"><text y="1.67" class="d">(</text><text x="1.002" y="1.67" class="c">(</text><text x="2.004" y="1.67" class="d">foo</text><text x="5.01" y="1.67" class="c">)</text><text x="7.014" y="1.67" class="d">(bar</text><text x="12.024" y="1.67" class="d">((baz)</text><text x="19.038" y="1.67" class="d">(box)))</text><text x="27.054" y="1.67" class="d">(you))</text></symbol><symbol id="3"><text y="1.67" class="d">((foo)</text><text x="7.014" y="1.67" class="c">(</text><text x="8.016" y="1.67" class="d">bar</text><text x="12.024" y="1.67" class="d">((baz)</text><text x="19.038" y="1.67" class="d">(box))</text><text x="25.05" y="1.67" class="c">)</text><text x="27.054" y="1.67" class="d">(you))</text></symbol><symbol id="4"><text y="1.67" class="d">((foo)</text><text x="7.014" y="1.67" class="d">(bar</text><text x="12.024" y="1.67" class="c">(</text><text x="13.026" y="1.67" class="d">(baz)</text><text x="19.038" y="1.67" class="d">(box)</text><text x="24.048" y="1.67" class="c">)</text><text x="25.05" y="1.67" class="d">)</text><text x="27.054" y="1.67" class="d">(you))</text></symbol><symbol id="5"><text y="1.67" class="d">((foo)</text><text x="7.014" y="1.67" class="d">(bar</text><text x="12.024" y="1.67" class="d">(</text><text x="13.026" y="1.67" class="c">(</text><text x="14.028" y="1.67" class="d">baz</text><text x="17.034" y="1.67" class="c">)</text><text x="19.038" y="1.67" class="d">(box)))</text><text x="27.054" y="1.67" class="d">(you))</text></symbol><symbol id="6"><text y="1.67" class="d">((foo)</text><text x="7.014" y="1.67" class="d">(bar</text><text x="12.024" y="1.67" class="d">((baz)</text><text x="19.038" y="1.67" class="c">(</text><text x="20.04" y="1.67" class="d">box</text><text x="23.046" y="1.67" class="c">)</text><text x="24.048" y="1.67" class="d">))</text><text x="27.054" y="1.67" class="d">(you))</text></symbol><symbol id="7"><text y="1.67" class="d">((foo)</text><text x="7.014" y="1.67" class="d">(bar</text><text x="12.024" y="1.67" class="d">((baz)</text><text x="19.038" y="1.67" class="d">(box)))</text><text x="27.054" y="1.67" class="c">(</text><text x="28.056" y="1.67" class="d">you</text><text x="31.062" y="1.67" class="c">)</text><text x="32.064" y="1.67" class="d">)</text></symbol><symbol id="a"><path fill="transparent" d="M0 0h33v2H0z"/></symbol><symbol id="b"><path fill="#cdced4" d="M0 0h1.102v2.171H0z"/></symbol></defs><path class="a" d="M0 0h33v2.171H0z"/><g style="animation-duration:5.2576200000000135s;animation-iteration-count:infinite;animation-name:g;animation-timing-function:steps(1,end)"><svg width="561"><svg><use xlink:href="#a"/><use xlink:href="#b" x="-.004"/><use xlink:href="#1"/></svg><svg x="33"><use xlink:href="#a"/><use xlink:href="#b" x=".996"/><use xlink:href="#1"/></svg><svg x="66"><use xlink:href="#a"/><use xlink:href="#b" x=".996"/><use xlink:href="#2"/></svg><svg x="99"><use xlink:href="#a"/><use xlink:href="#b" x="6.996"/><use xlink:href="#2"/></svg><svg x="132"><use xlink:href="#a"/><use xlink:href="#b" x="6.996"/><use xlink:href="#3"/></svg><svg x="165"><use xlink:href="#a"/><use xlink:href="#b" x="11.996"/><use xlink:href="#3"/></svg><svg x="198"><use xlink:href="#a"/><use xlink:href="#4"/></svg><svg x="231"><use xlink:href="#a"/><use xlink:href="#b" x="11.996"/><use xlink:href="#4"/></svg><svg x="264"><use xlink:href="#a"/><use xlink:href="#b" x="12.996"/><use xlink:href="#4"/></svg><svg x="297"><use xlink:href="#a"/><use xlink:href="#b" x="12.996"/><use xlink:href="#5"/></svg><svg x="330"><use xlink:href="#a"/><use xlink:href="#b" x="18.996"/><use xlink:href="#5"/></svg><svg x="363"><use xlink:href="#a"/><use xlink:href="#6"/></svg><svg x="396"><use xlink:href="#a"/><use xlink:href="#b" x="18.996"/><use xlink:href="#6"/></svg><svg x="429"><use xlink:href="#a"/><use xlink:href="#b" x="26.996"/><use xlink:href="#6"/></svg><svg x="462"><use xlink:href="#a"/><use xlink:href="#7"/></svg><svg x="495"><use xlink:href="#a"/><use xlink:href="#b" x="26.996"/><use xlink:href="#7"/></svg><svg x="528"><use xlink:href="#a"/><use xlink:href="#b" x="6.996"/><use xlink:href="#7"/></svg></svg></g></g></svg></svg>