<svg xmlns="http://www.w3.org/2000/svg" xmlns:xlink="http://www.w3.org/1999/xlink" width="400" height="21.71"><rect width="400" height="21.71" rx="0" ry="0" class="a"/><svg height="21.71" viewBox="0 0 40 2.171" width="400" xmlns="http://www.w3.org/2000/svg" xmlns:xlink="http://www.w3.org/1999/xlink"><style>@keyframes g{0%{transform:translateX(0)}6.7%{transform:translateX(-40px)}13.3%{transform:translateX(-80px)}20%{transform:translateX(-120px)}26.6%{transform:translateX(-160px)}33.3%{transform:translateX(-200px)}40%{transform:translateX(-240px)}46.6%{transform:translateX(-280px)}53.3%{transform:translateX(-320px)}60%{transform:translateX(-360px)}66.6%{transform:translateX(-400px)}66.7%{transform:translateX(-440px)}73.3%{transform:translateX(-480px)}80%{transform:translateX(-520px)}86.6%{transform:translateX(-560px)}93.3%{transform:translateX(-640px)}to{transform:translateX(-680px)}}.a{fill:#fff}.c,.d{white-space:pre}.c{fill:#000;font-weight:700}.d{fill:#828282}</style><g font-family="Monaco,Consolas,Menlo,'Bitstream Vera Sans Mono','Powerline Symbols',monospace" font-size="1.67"><defs><symbol id="1"><text y="1.67" class="c">(</text><text x="1.002" y="1.67" class="d">(foo)</text><text x="7.014" y="1.67" class="d">(bar</text><text x="12.024" y="1.67" class="d">((baz)</text><text x="19.038" y="1.67" class="d">(box)))</text><text x="27.054" y="1.67" class="d">(you)</text><text x="32.064" y="1.67" class="c">)</text></symbol><symbol id="2"><text y="1.67" class="d">(</text><text x="1.002" y="1.67" class="c">(</text><text x="2.004" y="1.67" class="d">foo</text><text x="5.01" y="1.67" class="c">)</text><text x="7.014" y="1.67" class="d">(bar</text><text x="12.024" y="1.67" class="d">((baz)</text><text x="19.038" y="1.67" class="d">(box)))</text><text x="27.054" y="1.67" class="d">(you))</text></symbol><symbol id="3"><text y="1.67" class="d">((foo)</text><text x="7.014" y="1.67" class="c">(</text><text x="8.016" y="1.67" class="d">bar</text><text x="12.024" y="1.67" class="d">((baz)</text><text x="19.038" y="1.67" class="d">(box))</text><text x="25.05" y="1.67" class="c">)</text><text x="27.054" y="1.67" class="d">(you))</text></symbol><symbol id="4"><text y="1.67" class="d">((foo)</text><text x="7.014" y="1.67" class="d">(bar</text><text x="12.024" y="1.67" class="c">(</text><text x="13.026" y="1.67" class="d">(baz)</text><text x="19.038" y="1.67" class="d">(box)</text><text x="24.048" y="1.67" class="c">)</text><text x="25.05" y="1.67" class="d">)</text><text x="27.054" y="1.67" class="d">(you))</text></symbol><symbol id="5"><text y="1.67" class="d">((foo)</text><text x="7.014" y="1.67" class="d">(bar</text><text x="12.024" y="1.67" class="d">(</text><text x="13.026" y="1.67" class="c">(</text><text x="14.028" y="1.67" class="d">baz</text><text x="17.034" y="1.67" class="c">)</text><text x="19.038" y="1.67" class="d">(box)))</text><text x="27.054" y="1.67" class="d">(you))</text></symbol><symbol id="6"><text y="1.67" class="d">((foo)</text><text x="7.014" y="1.67" class="d">(bar</text><text x="12.024" y="1.67" class="d">((baz)</text><text x="19.038" y="1.67" class="c">(</text><text x="20.04" y="1.67" class="d">box</text><text x="23.046" y="1.67" class="c">)</text><text x="24.048" y="1.67" class="d">))</text><text x="27.054" y="1.67" class="d">(you))</text></symbol><symbol id="7"><text y="1.67" class="d">((foo)</text><text x="7.014" y="1.67" class="d">(bar</text><text x="12.024" y="1.67" class="d">((baz)</text><text x="19.038" y="1.67" class="d">(box)))</text><text x="27.054" y="1.67" class="c">(</text><text x="28.056" y="1.67" class="d">you</text><text x="31.062" y="1.67" class="c">)</text><text x="32.064" y="1.67" class="d">)</text></symbol><symbol id="a"><path fill="transparent" d="M0 0h40v2H0z"/></symbol><symbol id="b"><path fill="#929292" d="M0 0h1.102v2.171H0z"/></symbol></defs><path class="a" d="M0 0h40v2.171H0z"/><g style="animation-duration:6.0044800000000045s;animation-iteration-count:infinite;animation-name:g;animation-timing-function:steps(1,end)"><svg width="720"><svg><use xlink:href="#a"/><use xlink:href="#b" x="-.004"/><use xlink:href="#1"/><text y="3.841" class="d">1&gt;</text></svg><svg x="40"><use xlink:href="#a"/><use xlink:href="#b" x="-.004"/><use xlink:href="#1"/><text y="3.841" class="d">Quit</text></svg><svg x="80"><use xlink:href="#a"/><use xlink:href="#b" x="-.004"/><use xlink:href="#1"/></svg><svg x="120"><use xlink:href="#a"/><use xlink:href="#b" x=".996"/><use xlink:href="#1"/></svg><svg x="160"><use xlink:href="#a"/><use xlink:href="#b" x=".996"/><use xlink:href="#2"/></svg><svg x="200"><use xlink:href="#a"/><use xlink:href="#b" x="6.996"/><use xlink:href="#2"/></svg><svg x="240"><use xlink:href="#a"/><use xlink:href="#b" x="6.996"/><use xlink:href="#3"/></svg><svg x="280"><use xlink:href="#a"/><use xlink:href="#b" x="11.996"/><use xlink:href="#3"/></svg><svg x="320"><use xlink:href="#a"/><use xlink:href="#b" x="11.996"/><use xlink:href="#4"/></svg><svg x="360"><use xlink:href="#a"/><use xlink:href="#b" x="12.996"/><use xlink:href="#4"/></svg><svg x="400"><use xlink:href="#a"/><use xlink:href="#5"/></svg><svg x="440"><use xlink:href="#a"/><use xlink:href="#b" x="12.996"/><use xlink:href="#5"/></svg><svg x="480"><use xlink:href="#a"/><use xlink:href="#b" x="18.996"/><use xlink:href="#5"/></svg><svg x="520"><use xlink:href="#a"/><use xlink:href="#b" x="18.996"/><use xlink:href="#6"/></svg><svg x="560"><use xlink:href="#a"/><use xlink:href="#b" x="26.996"/><use xlink:href="#6"/></svg><svg x="600"><use xlink:href="#a"/><use xlink:href="#7"/></svg><svg x="640"><use xlink:href="#a"/><use xlink:href="#b" x="26.996"/><use xlink:href="#7"/></svg><svg x="680"><use xlink:href="#a"/><use xlink:href="#b" x="-.004"/><use xlink:href="#7"/></svg></svg></g></g></svg></svg>