<svg xmlns="http://www.w3.org/2000/svg" xmlns:xlink="http://www.w3.org/1999/xlink" width="330" height="21.71"><rect width="330" height="21.71" rx="0" ry="0" class="a"/><svg height="21.71" viewBox="0 0 33 2.171" width="330" xmlns="http://www.w3.org/2000/svg" xmlns:xlink="http://www.w3.org/1999/xlink"><style>@keyframes h{0%{transform:translateX(0)}2.7%{transform:translateX(-33px)}7.2%{transform:translateX(-99px)}8.8%{transform:translateX(-198px)}11.6%{transform:translateX(-264px)}11.9%{transform:translateX(-330px)}14.6%{transform:translateX(-429px)}14.7%{transform:translateX(-495px)}17.4%{transform:translateX(-561px)}20.2%{transform:translateX(-594px)}23%{transform:translateX(-627px)}31.2%{transform:translateX(-660px)}33.9%{transform:translateX(-693px)}39.4%{transform:translateX(-726px)}42.1%{transform:translateX(-759px)}44.9%{transform:translateX(-792px)}47.6%{transform:translateX(-825px)}50.4%{transform:translateX(-858px)}53.1%{transform:translateX(-891px)}55.9%{transform:translateX(-924px)}58.6%{transform:translateX(-957px)}58.7%{transform:translateX(-990px)}61.4%{transform:translateX(-1023px)}64.2%{transform:translateX(-1056px)}68.7%{transform:translateX(-1122px)}71.4%{transform:translateX(-1188px)}74.2%{transform:translateX(-1221px)}76.9%{transform:translateX(-1254px)}77%{transform:translateX(-1287px)}79.5%{transform:translateX(-1320px)}82.2%{transform:translateX(-1353px)}85%{transform:translateX(-1386px)}87.8%{transform:translateX(-1452px)}90.6%{transform:translateX(-1485px)}93.3%{transform:translateX(-1518px)}93.4%{transform:translateX(-1551px)}94.6%{transform:translateX(-1584px)}94.7%{transform:translateX(-1617px)}96.2%{transform:translateX(-1650px)}96.8%{transform:translateX(-1683px)}97%{transform:translateX(-1716px)}98.7%{transform:translateX(-1749px)}98.8%{transform:translateX(-1782px)}to{transform:translateX(-1815px)}}.a{fill:#fff}.c{fill:#828282}.c,.d,.e{white-space:pre}.d{fill:#000;font-weight:700}.e{fill:#0000d7}</style><g font-family="Monaco,Consolas,Menlo,'Bitstream Vera Sans Mono','Powerline Symbols',monospace" font-size="1.67"><defs><symbol id="1"><text y="1.67" class="c">((foo)</text><text x="7.014" y="1.67" class="c">(bar</text><text x="12.024" y="1.67" class="c">((baz)</text><text x="19.038" y="1.67" class="c">(box)))</text><text x="27.054" y="1.67" class="d">(</text><text x="28.056" y="1.67" class="c">you</text><text x="31.062" y="1.67" class="d">)</text><text x="32.064" y="1.67" class="c">)</text></symbol><symbol id="2"><text y="1.67" class="c">SPC</text></symbol><symbol id="3"><text y="1.67" class="c">SPC-</text></symbol><symbol id="4"><text y="1.67" class="c">C-u-</text></symbol><symbol id="5"><text y="1.67" class="c">((foo)</text><text x="7.014" y="1.67" class="c">(bar</text><text x="12.024" y="1.67" class="c">((baz)</text><text x="19.038" y="1.67" class="c">(box)))</text><text x="27.054" y="1.67" class="d">(</text><text x="28.056" y="1.67" class="c">you</text><text x="31.062" y="1.67" class="d">)</text></symbol><symbol id="6"><text y="1.67" class="c">((foo)</text><text x="7.014" y="1.67" class="c">(bar</text><text x="12.024" y="1.67" class="c">((baz)</text><text x="19.038" y="1.67" class="d">(</text><text x="20.04" y="1.67" class="c">box</text><text x="23.046" y="1.67" class="d">)</text><text x="24.048" y="1.67" class="c">))</text><text x="27.054" y="1.67" class="c">(you)</text></symbol><symbol id="7"><text y="1.67" class="c">((foo)</text><text x="7.014" y="1.67" class="c">(bar</text><text x="12.024" y="1.67" class="c">(</text><text x="13.026" y="1.67" class="d">(</text><text x="14.028" y="1.67" class="c">baz</text><text x="17.034" y="1.67" class="d">)</text><text x="19.038" y="1.67" class="c">(box)))</text><text x="27.054" y="1.67" class="c">(you)</text></symbol><symbol id="8"><text y="1.67" class="c">((foo)</text><text x="7.014" y="1.67" class="c">(bar</text><text x="12.024" y="1.67" class="d">(</text><text x="13.026" y="1.67" class="c">(baz)</text><text x="19.038" y="1.67" class="c">(box)</text><text x="24.048" y="1.67" class="d">)</text><text x="25.05" y="1.67" class="c">)</text><text x="27.054" y="1.67" class="c">(you)</text></symbol><symbol id="9"><text y="1.67" class="c">((foo)</text><text x="7.014" y="1.67" class="d">(</text><text x="8.016" y="1.67" class="c">bar</text><text x="12.024" y="1.67" class="c">((baz)</text><text x="19.038" y="1.67" class="c">(box))</text><text x="25.05" y="1.67" class="d">)</text><text x="27.054" y="1.67" class="c">(you)</text></symbol><symbol id="10"><text y="1.67" class="c">(</text><text x="1.002" y="1.67" class="d">(</text><text x="2.004" y="1.67" class="c">foo</text><text x="5.01" y="1.67" class="d">)</text><text x="7.014" y="1.67" class="c">(bar</text><text x="12.024" y="1.67" class="c">((baz)</text><text x="19.038" y="1.67" class="c">(box)))</text><text x="27.054" y="1.67" class="c">(you)</text></symbol><symbol id="11"><text y="1.67" class="d">(</text><text x="1.002" y="1.67" class="c">(foo)</text><text x="7.014" y="1.67" class="c">(bar</text><text x="12.024" y="1.67" class="c">((baz)</text><text x="19.038" y="1.67" class="c">(box)))</text><text x="27.054" y="1.67" class="c">(you)</text><text x="32.064" y="1.67" class="d">)</text></symbol><symbol id="12"><text y="1.67" class="c">Wrote</text><text x="6.012" y="1.67" class="c">/Users/ethanleba/.emacs.d/.</text></symbol><symbol id="13"><text x="1.002" y="1.67" class="e">n)</text></symbol><symbol id="14"><text x="1.002" y="1.67" class="e">n)</text><text x="31.062" y="1.67" class="c">[N</text></symbol><symbol id="15"><text y="1.67" class="c">o</text><text x="2.004" y="1.67" class="c">further</text><text x="10.02" y="1.67" class="c">undo</text><text x="15.03" y="1.67" class="c">information]</text></symbol><symbol id="16"><text y="1.67" class="c">ore</text><text x="4.008" y="1.67" class="c">demons</text><text x="11.022" y="1.67" class="c">to</text><text x="14.028" y="1.67" class="c">toast!</text><text x="22.044" y="1.67" class="c">Quit?</text><text x="28.056" y="1.67" class="c">(y</text><text x="31.062" y="1.67" class="c">or</text></symbol><symbol id="17"><text y="1.67" class="c">&quot;.local/cache/recentf&quot;</text><text x="23.046" y="1.67" class="c">212L,</text><text x="29.058" y="1.67" class="c">1449</text></symbol><symbol id="a"><path fill="transparent" d="M0 0h33v2H0z"/></symbol><symbol id="b"><path fill="#cdced4" d="M0 0h1.102v2.171H0z"/></symbol></defs><path class="a" d="M0 0h33v2.171H0z"/><g style="animation-duration:14.649569999999908s;animation-iteration-count:infinite;animation-name:h;animation-timing-function:steps(1,end)"><svg width="1848"><svg><use xlink:href="#a"/><use xlink:href="#b" x="26.996"/><text y="1.67" class="c">((foo)</text><text x="7.014" y="1.67" class="d">(</text><text x="8.016" y="1.67" class="c">bar</text><text x="12.024" y="1.67" class="c">((baz)</text><text x="19.038" y="1.67" class="c">(box))</text><text x="25.05" y="1.67" class="d">)</text><text x="27.054" y="1.67" class="c">(you))</text></svg><svg x="33"><use xlink:href="#a"/><use xlink:href="#b" x="26.996"/><use xlink:href="#1"/></svg><svg x="66"><use xlink:href="#a"/><use xlink:href="#b" x="26.996"/><use xlink:href="#1"/><use xlink:href="#2" y="2.171"/></svg><svg x="99"><use xlink:href="#a"/><use xlink:href="#b" x="26.996"/><use xlink:href="#1"/><use xlink:href="#3" y="2.171"/></svg><svg x="132"><use xlink:href="#a"/><use xlink:href="#b" x="26.996"/><use xlink:href="#1"/><text y="3.841" class="c">SPC</text><text x="4.008" y="3.841" class="c">u</text></svg><svg x="165"><use xlink:href="#a"/><use xlink:href="#b" x="26.996"/><use xlink:href="#1"/><text y="3.841" class="c">C-u</text></svg><svg x="198"><use xlink:href="#a"/><use xlink:href="#b" x="26.996"/><use xlink:href="#1"/><use xlink:href="#4" y="2.171"/></svg><svg x="231"><use xlink:href="#a"/><use xlink:href="#b" x="26.996"/><use xlink:href="#1"/><use xlink:href="#4" y="2.171"/></svg><svg x="264"><use xlink:href="#a"/><use xlink:href="#b" x="26.996"/><use xlink:href="#1"/><text y="3.841" class="c">C-u</text><text x="4.008" y="3.841" class="c">q</text></svg><svg x="297"><use xlink:href="#a"/><use xlink:href="#b" x="26.996"/></svg><svg x="330"><use xlink:href="#a"/><use xlink:href="#b" x="26.996"/><text x="5.01" y="3.841" class="c">-</text></svg><svg x="363"><use xlink:href="#a"/><use xlink:href="#b" x="26.996"/></svg><svg x="396"><use xlink:href="#a"/><use xlink:href="#b" x="26.996"/><text y="3.841" class="c">f</text></svg><svg x="429"><use xlink:href="#a"/><use xlink:href="#b" x="26.996"/></svg><svg x="462"><use xlink:href="#a"/><use xlink:href="#5"/></svg><svg x="495"><use xlink:href="#a"/><use xlink:href="#b" x="18.996"/><use xlink:href="#5"/></svg><svg x="528"><use xlink:href="#a"/><use xlink:href="#6"/></svg><svg x="561"><use xlink:href="#a"/><use xlink:href="#b" x="18.996"/><use xlink:href="#6"/></svg><svg x="594"><use xlink:href="#a"/><use xlink:href="#b" x="12.996"/><use xlink:href="#6"/></svg><svg x="627"><use xlink:href="#a"/><use xlink:href="#b" x="12.996"/><use xlink:href="#7"/></svg><svg x="660"><use xlink:href="#a"/><use xlink:href="#b" x="18.996"/><use xlink:href="#7"/></svg><svg x="693"><use xlink:href="#a"/><use xlink:href="#b" x="18.996"/><use xlink:href="#6"/></svg><svg x="726"><use xlink:href="#a"/><use xlink:href="#b" x="12.996"/><use xlink:href="#6"/></svg><svg x="759"><use xlink:href="#a"/><use xlink:href="#b" x="12.996"/><use xlink:href="#7"/></svg><svg x="792"><use xlink:href="#a"/><use xlink:href="#b" x="11.996"/><use xlink:href="#7"/></svg><svg x="825"><use xlink:href="#a"/><use xlink:href="#b" x="11.996"/><use xlink:href="#8"/></svg><svg x="858"><use xlink:href="#a"/><use xlink:href="#b" x="6.996"/><use xlink:href="#8"/></svg><svg x="891"><use xlink:href="#a"/><use xlink:href="#b" x="6.996"/><use xlink:href="#9"/></svg><svg x="924"><use xlink:href="#a"/><use xlink:href="#b" x=".996"/><use xlink:href="#9"/></svg><svg x="957"><use xlink:href="#a"/><use xlink:href="#10"/></svg><svg x="990"><use xlink:href="#a"/><use xlink:href="#b" x=".996"/><use xlink:href="#10"/></svg><svg x="1023"><use xlink:href="#a"/><use xlink:href="#b" x="-.004"/><use xlink:href="#10"/></svg><svg x="1056"><use xlink:href="#a"/><use xlink:href="#b" x="-.004"/><use xlink:href="#11"/></svg><svg x="1089"><use xlink:href="#a"/><use xlink:href="#b" x="-.004"/><use xlink:href="#11"/><use xlink:href="#2" y="2.171"/></svg><svg x="1122"><use xlink:href="#a"/><use xlink:href="#b" x="-.004"/><use xlink:href="#11"/><use xlink:href="#3" y="2.171"/></svg><svg x="1155"><use xlink:href="#a"/><use xlink:href="#b" x="-.004"/><use xlink:href="#11"/><text y="3.841" class="c">SPC</text><text x="4.008" y="3.841" class="c">q</text></svg><svg x="1188"><use xlink:href="#a"/><use xlink:href="#b" x="-.004"/><use xlink:href="#11"/><text y="3.841" class="c">SPC</text><text x="4.008" y="3.841" class="c">q-</text></svg><svg x="1221"><use xlink:href="#a"/><use xlink:href="#b" x="-.004"/><use xlink:href="#11"/><text y="3.841" class="c">SPC</text><text x="4.008" y="3.841" class="c">q</text><text x="6.012" y="3.841" class="c">q</text></svg><svg x="1254"><use xlink:href="#a"/><use xlink:href="#b" x="-.004"/><use xlink:href="#12"/></svg><svg x="1287"><use xlink:href="#a"/><use xlink:href="#b" x="-.004"/><text y="1.67" class="c">&quot;.local/etc/workspaces/autosave&quot;</text><text y="3.841" class="c">2L,</text><text x="4.008" y="3.841" class="c">1448C</text><text x="10.02" y="3.841" class="c">written</text></svg><svg x="1320"><use xlink:href="#a"/><use xlink:href="#b" x="3.996" y="2.146"/><text y="1.67" class="e">ore</text><text x="4.008" y="1.67" class="e">demons</text><text x="11.022" y="1.67" class="e">to</text><text x="14.028" y="1.67" class="e">toast!</text><text x="22.044" y="1.67" class="e">Quit?</text><text x="28.056" y="1.67" class="e">(y</text><text x="31.062" y="1.67" class="e">or</text><use xlink:href="#13" y="2.171"/></svg><svg x="1353"><use xlink:href="#a"/><use xlink:href="#b" x="31.996" y="2.146"/><text y="1.67" class="c">((foo)</text><text x="7.014" y="1.67" class="c">(bar</text><text x="12.024" y="1.67" class="c">((baz)</text><text x="19.038" y="1.67" class="c">(box)))</text><text x="27.054" y="1.67" class="c">(you))</text><use xlink:href="#13" y="2.171"/></svg><svg x="1386"><use xlink:href="#a"/><use xlink:href="#b" x="31.996" y="2.146"/><use xlink:href="#14"/><use xlink:href="#15" y="2.171"/></svg><svg x="1419"><use xlink:href="#a"/><use xlink:href="#b" x="-.004" y="2.146"/><use xlink:href="#14"/><use xlink:href="#15" y="2.171"/></svg><svg x="1452"><use xlink:href="#a"/><use xlink:href="#b" x="-.004"/><use xlink:href="#16"/><text x="1.002" y="3.841" class="c">n)</text><text x="4.008" y="3.841" class="c">y</text></svg><svg x="1485"><use xlink:href="#a"/><use xlink:href="#b" x="-.004"/><use xlink:href="#16"/><text y="3.841" class="c">No</text><text x="3.006" y="3.841" class="c">projects</text><text x="12.024" y="3.841" class="c">needed</text><text x="19.038" y="3.841" class="c">to</text><text x="22.044" y="3.841" class="c">be</text><text x="25.05" y="3.841" class="c">removed</text></svg><svg x="1518"><use xlink:href="#a"/><use xlink:href="#b" x="-.004"/><use xlink:href="#12"/></svg><svg x="1551"><use xlink:href="#a"/><use xlink:href="#b" x="-.004"/><use xlink:href="#17"/><text y="3.841" class="c">7C</text><text x="3.006" y="3.841" class="c">written</text></svg><svg x="1584"><use xlink:href="#a"/><use xlink:href="#b" x="-.004"/><use xlink:href="#17"/><text y="3.841" class="c">Cleaning</text><text x="9.018" y="3.841" class="c">up</text><text x="12.024" y="3.841" class="c">the</text><text x="16.032" y="3.841" class="c">recentf</text><text x="24.048" y="3.841" class="c">list...</text></svg><svg x="1617"><use xlink:href="#a"/><use xlink:href="#b" x="-.004"/><text y="1.67" class="c">ppets/kdesc</text><text x="12.024" y="1.67" class="c">removed</text><text x="20.04" y="1.67" class="c">from</text><text x="25.05" y="1.67" class="c">the</text><text x="29.058" y="1.67" class="c">rece</text><text y="3.841" class="c">ntf</text><text x="4.008" y="3.841" class="c">list</text></svg><svg x="1650"><use xlink:href="#a"/><use xlink:href="#b" x="-.004"/><text y="1.67" class="c">Cleaning</text><text x="9.018" y="1.67" class="c">up</text><text x="12.024" y="1.67" class="c">the</text><text x="16.032" y="1.67" class="c">recentf</text><text x="24.048" y="1.67" class="c">list...do</text><text y="3.841" class="c">ne</text><text x="3.006" y="3.841" class="c">(1</text><text x="6.012" y="3.841" class="c">removed)</text></svg><svg x="1683"><use xlink:href="#a"/><use xlink:href="#b" x="-.004"/><use xlink:href="#12"/><text y="3.841" class="c">local/cache/saveplace</text></svg><svg x="1716"><use xlink:href="#a"/><use xlink:href="#b" x="-.004" y="2.146"/><text y="1.67" class="c">cs</text><text x="3.006" y="1.67" class="c">-nw</text><text x="7.014" y="1.67" style="white-space:pre" fill="#828282" text-decoration="underline">em</text><text x="9.018" y="1.67" class="c">Documents/emacs-pkg-deve</text></svg><svg x="1749"><use xlink:href="#a"/><use xlink:href="#b" x="-.004" y="2.146"/></svg><svg x="1782"><use xlink:href="#a"/><use xlink:href="#b" x="-.004" y="2.146"/></svg><svg x="1815"><use xlink:href="#a"/><use xlink:href="#b" x="29.996" y="2.146"/><text y="3.841" class="c">ethanleba@ethans-mbp</text><text x="21.042" y="3.841" class="c">assets</text><text x="28.056" y="3.841" class="c">%</text></svg></svg></g></g></svg></svg>