<svg xmlns="http://www.w3.org/2000/svg" xmlns:xlink="http://www.w3.org/1999/xlink" width="330" height="21.71"><rect width="330" height="21.71" rx="0" ry="0" class="a"/><svg height="21.71" viewBox="0 0 33 2.171" width="330" xmlns="http://www.w3.org/2000/svg" xmlns:xlink="http://www.w3.org/1999/xlink"><style>@keyframes g{0%{transform:translateX(0)}.1%{transform:translateX(-33px)}16.9%{transform:translateX(-66px)}33.5%{transform:translateX(-99px)}50.3%{transform:translateX(-132px)}66.8%{transform:translateX(-165px)}66.9%{transform:translateX(-198px)}to{transform:translateX(-231px)}}.a{fill:#fff}.c,.d{fill:#828282;white-space:pre}.d{fill:#000;font-weight:700}</style><g font-family="Monaco,Consolas,Menlo,'Bitstream Vera Sans Mono','Powerline Symbols',monospace" font-size="1.67"><defs><symbol id="1"><text y="1.67" class="c">((foo)</text><text x="7.014" y="1.67" class="c">(bar</text><text x="12.024" y="1.67" class="c">((baz)</text><text x="19.038" y="1.67" class="c">(box)))</text><text x="27.054" y="1.67" class="d">(</text><text x="28.056" y="1.67" class="c">you</text><text x="31.062" y="1.67" class="d">)</text><text x="32.064" y="1.67" class="c">)</text></symbol><symbol id="2"><text y="1.67" class="c">((foo)</text><text x="7.014" y="1.67" class="d">(</text><text x="8.016" y="1.67" class="c">bar</text><text x="12.024" y="1.67" class="c">((baz)</text><text x="19.038" y="1.67" class="c">(box))</text><text x="25.05" y="1.67" class="d">)</text><text x="27.054" y="1.67" class="c">(you))</text></symbol><symbol id="3"><text y="1.67" class="c">(</text><text x="1.002" y="1.67" class="d">(</text><text x="2.004" y="1.67" class="c">foo</text><text x="5.01" y="1.67" class="d">)</text><text x="7.014" y="1.67" class="c">(bar</text><text x="12.024" y="1.67" class="c">((baz)</text><text x="19.038" y="1.67" class="c">(box)))</text><text x="27.054" y="1.67" class="c">(you))</text></symbol><symbol id="a"><path fill="transparent" d="M0 0h33v2H0z"/></symbol><symbol id="b"><path fill="#cdced4" d="M0 0h1.102v2.171H0z"/></symbol></defs><path class="a" d="M0 0h33v2.171H0z"/><g style="animation-duration:2.418580000000034s;animation-iteration-count:infinite;animation-name:g;animation-timing-function:steps(1,end)"><svg width="264"><svg><use xlink:href="#a"/><use xlink:href="#1"/></svg><svg x="33"><use xlink:href="#a"/><use xlink:href="#b" x="26.996"/><use xlink:href="#1"/></svg><svg x="66"><use xlink:href="#a"/><use xlink:href="#b" x="6.996"/><use xlink:href="#1"/></svg><svg x="99"><use xlink:href="#a"/><use xlink:href="#b" x="6.996"/><use xlink:href="#2"/></svg><svg x="132"><use xlink:href="#a"/><use xlink:href="#b" x=".996"/><use xlink:href="#2"/></svg><svg x="165"><use xlink:href="#a"/><use xlink:href="#3"/></svg><svg x="198"><use xlink:href="#a"/><use xlink:href="#b" x=".996"/><use xlink:href="#3"/></svg><svg x="231"><use xlink:href="#a"/><use xlink:href="#b" x="6.996"/><use xlink:href="#3"/></svg></svg></g></g></svg></svg>